<svg width="61" height="93" xmlns="http://www.w3.org/2000/svg"><g fill="none" fill-rule="evenodd"><path d="M0 17.833c0 37.743 15.573 47.605 29.537 56.545 13.964-8.94 29.54-18.802 29.54-56.545L29.537.186 0 17.833zM45.862 87.522c0 2.821-7.31 5.108-16.324 5.108-9.015 0-16.323-2.287-16.323-5.108 0-2.82 7.308-5.108 16.323-5.108s16.324 2.287 16.324 5.108" fill="#E6E6E6"/><path d="M29.538 5.6L54.662 20.61c0 32.103-13.246 40.493-25.124 48.096V5.6z" fill="#91DDF8"/><path d="M29.538 5.6L4.414 20.61c0 32.103 13.246 40.493 25.124 48.096V5.6z" fill="#009DD6"/><path d="M54.515 34.256c0 3.833-2.847 7.454-6.361 7.454-3.513 0-6.361-3.62-6.361-7.454 0-3.834 2.848-6.427 6.36-6.427 3.514 0 6.362 2.593 6.362 6.427M53.969 42.352c-2.388 1.661-3.2 2.305-5.688 2.305-2.534 0-3.011-.466-5.748-2.305-3.734 2.275-5.242 5.512-6.243 10.318 0 0 3.777 3.408 11.864 3.408s11.892-3.509 11.892-3.509c-.952-4.693-2.434-7.919-6.077-10.217" fill="#7849B8"/></g></svg>