<?xml version="1.0" encoding="utf-8"?>
<!-- Generator: Adobe Illustrator 16.0.0, SVG Export Plug-In . SVG Version: 6.00 Build 0)  -->
<!DOCTYPE svg PUBLIC "-//W3C//DTD SVG 1.1//EN" "http://www.w3.org/Graphics/SVG/1.1/DTD/svg11.dtd">
<svg version="1.1" id="Layer_1" xmlns="http://www.w3.org/2000/svg" xmlns:xlink="http://www.w3.org/1999/xlink" x="0px" y="0px"
	 width="183px" height="34.218px" viewBox="-90 -13.718 183 34.218" enable-background="new -90 -13.718 183 34.218"
	 xml:space="preserve">
<g>
	<g>
		<g>
			<path fill="#FFFFFF" d="M-18.053,11.685c-4.056,0-6.965-2.441-6.965-6.253c0-3.769,3.009-6.28,6.965-6.28
				c3.955,0,6.965,2.495,6.965,6.28C-11.088,9.244-14.016,11.685-18.053,11.685z M-18.053,8.685c1.693,0,2.694-1.48,2.694-3.255
				c0-1.794-0.953-3.281-2.694-3.281c-1.815,0-2.688,1.485-2.688,3.281C-20.741,7.204-19.742,8.685-18.053,8.685z"/>
			<path fill="#FFFFFF" d="M22.79,11.428V-5.47h4.157v5.789h0.044c0.292-0.184,1.645-1.151,3.62-1.151
				c3.241,0,5.619,2.606,5.619,6.055c0,4.303-2.639,6.472-5.649,6.472c-2.268,0-3.427-1.059-3.708-1.367h-0.069l-0.059,1.1H22.79z
				 M31.919,5.432c0-1.599-0.917-3.021-2.509-3.021c-1.403,0-2.528,1.198-2.528,3.021c0,1.776,0.922,3.037,2.528,3.037
				C30.86,8.468,31.919,7.273,31.919,5.432z"/>
			<path fill="#FFFFFF" d="M0.424-0.541h4.178v11.996H0.424V-0.541z M2.517-6.612c-1.287,0-2.346,1.059-2.346,2.345
				c0,1.286,1.059,2.338,2.346,2.338c1.285,0,2.338-1.052,2.338-2.338C4.854-5.553,3.802-6.612,2.517-6.612z"/>
			<path fill="#FFFFFF" d="M54.048,11.438h4.055V5.248c0-1.449,0.963-2.445,2.199-2.445c1.402,0,2.197,0.915,2.197,2.445v6.189
				h4.055V4.223c0-2.717-1.753-5.041-4.955-5.041c-2.146,0-3.26,1.164-3.765,1.62h-0.086l-0.042-1.325h-3.658V11.438L54.048,11.438z
				"/>
			<polygon fill="#FFFFFF" points="69.115,11.438 73.272,11.438 73.272,5.895 73.323,5.895 77.013,11.438 81.639,11.438 
				77.185,5.087 81.524,-0.531 76.904,-0.531 73.323,4.414 73.272,4.414 73.272,-5.457 69.115,-5.457 			"/>
			<path fill="#FFFFFF" d="M-26.081-0.363c-0.313-0.086-1.454-0.479-2.974-0.479c-3.755,0-6.57,2.35-6.57,6.263
				c0,3.557,2.528,6.263,6.398,6.263c1.65,0,2.867-0.435,3.144-0.522l-0.202-3.493c-0.32,0.147-1.156,0.62-2.112,0.62
				c-1.685,0-2.914-1.187-2.914-2.868c0-1.758,1.317-2.888,2.96-2.888c0.928,0,1.753,0.431,2.064,0.579L-26.081-0.363z"/>
			<path fill="#FFFFFF" d="M20.094-0.545v11.983h-4.046l-0.062-1.207h-0.088c-0.446,0.404-1.381,1.473-3.991,1.473
				c-2.898,0-5.438-2.517-5.438-6.271c0-3.479,2.252-6.261,5.703-6.261c2.341,0,3.304,1.034,3.662,1.364h0.106l0.045-1.082h4.107
				V-0.545z M10.884,5.327c0,1.98,1.105,3.217,2.537,3.217c1.297,0,2.563-1.211,2.563-3.057c0-1.855-1.12-3.125-2.563-3.125
				C11.932,2.36,10.884,3.689,10.884,5.327z"/>
			<path fill="#FFFFFF" d="M51.352-0.549v11.983h-4.046L47.24,10.22h-0.086c-0.451,0.408-1.383,1.475-3.989,1.475
				c-2.904,0-5.439-2.518-5.439-6.27c0-3.477,2.254-6.257,5.7-6.257c2.346,0,3.309,1.032,3.668,1.362h0.109l0.037-1.082h4.111
				V-0.549z M42.144,5.319c0,1.982,1.103,3.219,2.532,3.219c1.298,0,2.564-1.212,2.564-3.058c0-1.859-1.118-3.125-2.564-3.125
				C43.188,2.355,42.144,3.686,42.144,5.319z"/>
			<path fill="#FFFFFF" d="M-49.006,10.994c1.167,0.354,2.937,0.681,4.813,0.681c3.56,0,7.109-1.261,7.109-5.168
				c0-5.364-7.389-4.621-7.389-6.757c0-1.099,1.134-1.333,2.244-1.333c1.548,0,3.505,0.739,3.936,0.917l0.337-3.69
				c-1.08-0.369-2.72-0.578-4.251-0.578c-3.515,0-6.984,1.375-6.984,4.854c0,5.264,7.377,4.168,7.377,6.934
				c0,1.061-1.065,1.464-2.419,1.464c-1.862,0-3.608-0.93-4.366-1.266L-49.006,10.994z"/>
			<path fill="#FFFFFF" d="M-1.594,8.175c-0.212,0.049-0.766,0.198-1.155,0.198c-0.846,0-1.772-0.394-1.772-1.858V2.462h2.624
				v-3.011h-2.624v-3.864H-8.69v3.864h-1.823v3.013h1.823v4.74c0,2.606,1.209,4.477,4.294,4.477c0.902,0,1.719-0.124,2.288-0.23
				L-1.594,8.175z"/>
		</g>
		<path fill="#FFFFFF" d="M-81.87,3.295c-0.969-1.541-1.184-3.587-1.184-5.167c0-5.349,4.784-9.873,9.773-9.873h15.622l-6.065,6.115
			h-9.665C-77.275-5.63-81.977-1.692-81.87,3.295L-81.87,3.295z M-75.91-1.091c0.401-1.284,1.658-2.934,2.842-3.798l0,0
			c-2.262,0-4.811,1.078-6.753,3.798H-75.91z M-72.785-4.134c-0.89,0.787-1.861,1.968-2.355,3.045h4.688
			C-70.947-2.166-71.918-3.347-72.785-4.134L-72.785-4.134z M-80.212-0.292c-0.58,1.042-0.867,2.227-0.969,3.41h4.382
			c0-1.184,0.215-2.368,0.602-3.41H-80.212z M-75.438-0.292c-0.391,1.042-0.57,2.227-0.679,3.41h6.639
			c-0.108-1.184-0.285-2.368-0.679-3.41H-75.438z M-65.858-1.091c-1.858-2.718-4.406-3.798-6.632-3.798l0,0
			c1.151,0.865,2.334,2.515,2.833,3.798H-65.858z M-69.375-0.292c0.401,1.042,0.583,2.227,0.583,3.41h4.382
			c-0.073-1.184-0.37-2.368-0.972-3.41H-69.375z M-79.821,7.893c1.944,2.837,4.491,3.81,6.753,3.81l0,0
			c-1.184-0.894-2.44-2.543-2.842-3.81H-79.821z M-72.785,11.018c0.867-0.783,1.838-2.047,2.333-3.125h-4.688
			C-74.646,8.968-73.675,10.234-72.785,11.018L-72.785,11.018z M-76.197,7.212c-0.389-1.179-0.602-2.344-0.602-3.411h-4.382
			c0.102,1.155,0.389,2.332,0.969,3.411H-76.197z M-70.156,7.212c0.394-1.08,0.57-2.256,0.679-3.411h-6.639
			c0.108,1.155,0.288,2.332,0.679,3.411H-70.156z M-69.657,7.893c-0.499,1.267-1.684,2.917-2.833,3.81l0,0
			c2.226,0,4.773-0.973,6.634-3.81H-69.657z M-65.382,7.212c0.602-1.08,0.898-2.256,0.972-3.411h-4.382
			c0,1.067-0.182,2.23-0.583,3.411H-65.382z M-63.724,3.406c0.108,5.172-4.573,9.08-8.481,9.08h-9.665l-6.064,6.041h15.623
			c4.988,0,9.772-4.484,9.772-9.843c0-1.574-0.188-3.625-1.185-5.176V3.406z"/>
	</g>
	<g>
		<g>
			<path fill="#FFFFFF" d="M84.747-2.604c0-1.707,1.387-3.096,3.092-3.096s3.096,1.389,3.096,3.096c0,1.709-1.391,3.098-3.096,3.098
				S84.747-0.894,84.747-2.604z M90.178-2.604c0-1.45-1.036-2.494-2.339-2.494c-1.291,0-2.34,1.044-2.34,2.494
				s1.049,2.498,2.34,2.498C89.142-0.107,90.178-1.153,90.178-2.604z M86.646-4.37h1.312c0.836,0,1.291,0.293,1.291,1.03
				c0,0.599-0.341,0.891-0.92,0.945l0.951,1.534h-0.67l-0.913-1.508H87.3v1.508h-0.652V-4.37H86.646z M87.296-2.869h0.579
				c0.38,0,0.722-0.049,0.722-0.522c0-0.41-0.378-0.479-0.71-0.479h-0.591V-2.869z"/>
		</g>
	</g>
</g>
<g display="none">
	<g display="inline">
		<g>
			<path d="M-83.244,3.313c-0.798-1.267-0.972-2.949-0.972-4.243c0-4.398,3.93-8.112,8.026-8.112h12.833l-4.981,5.024h-7.939
				C-79.469-4.019-83.331-0.782-83.244,3.313L-83.244,3.313z M-78.351-0.287c0.33-1.058,1.362-2.413,2.333-3.124l0,0
				c-1.856,0-3.947,0.885-5.543,3.124H-78.351z M-75.783-2.787c-0.729,0.643-1.527,1.615-1.934,2.5h3.853
				C-74.272-1.171-75.071-2.144-75.783-2.787L-75.783-2.787z M-81.881,0.364c-0.478,0.857-0.711,1.83-0.798,2.802h3.6
				c0-0.972,0.174-1.944,0.495-2.802H-81.881z M-77.96,0.364c-0.321,0.857-0.468,1.83-0.556,2.802h5.449
				c-0.087-0.972-0.234-1.944-0.556-2.802H-77.96z M-70.09-0.287c-1.528-2.239-3.619-3.124-5.449-3.124l0,0
				c0.946,0.71,1.917,2.065,2.325,3.124H-70.09z M-72.98,0.364c0.33,0.857,0.478,1.83,0.478,2.802h3.601
				c-0.061-0.972-0.303-1.944-0.799-2.802H-72.98z M-81.561,7.088c1.597,2.333,3.687,3.131,5.543,3.131l0,0
				c-0.972-0.737-2.004-2.09-2.333-3.131H-81.561z M-75.783,9.655c0.711-0.642,1.51-1.682,1.918-2.567h-3.853
				C-77.31,7.974-76.512,9.014-75.783,9.655L-75.783,9.655z M-78.585,6.534c-0.32-0.973-0.495-1.927-0.495-2.804h-3.6
				c0.086,0.945,0.32,1.917,0.798,2.804H-78.585z M-73.623,6.534c0.322-0.887,0.469-1.858,0.556-2.804h-5.449
				c0.087,0.945,0.235,1.917,0.556,2.804H-73.623z M-73.214,7.088c-0.408,1.041-1.379,2.394-2.325,3.131l0,0
				c1.83,0,3.921-0.798,5.449-3.131H-73.214z M-69.7,6.534c0.496-0.887,0.738-1.858,0.799-2.804h-3.601
				c0,0.876-0.148,1.831-0.478,2.804H-69.7z M-68.338,3.399c0.087,4.252-3.756,7.462-6.967,7.462h-7.938l-4.981,4.964h12.833
				c4.096,0,8.025-3.689,8.025-8.087c0-1.293-0.155-2.976-0.972-4.251V3.399z"/>
			<g>
				<path d="M49.641,10.203c-3.334,0-5.721-2.002-5.721-5.136c0-3.095,2.474-5.155,5.721-5.155c3.247,0,5.722,2.048,5.722,5.155
					C55.362,8.201,52.955,10.203,49.641,10.203z M49.641,7.74c1.392,0,2.21-1.219,2.21-2.673c0-1.473-0.778-2.693-2.21-2.693
					c-1.494,0-2.208,1.22-2.208,2.693C47.433,6.521,48.253,7.74,49.641,7.74z"/>
				<path d="M64.819,0.163h3.43v9.853h-3.43V0.163z M66.536-4.824c-1.059,0-1.926,0.867-1.926,1.924
					c0,1.056,0.867,1.923,1.926,1.923c1.055,0,1.921-0.868,1.921-1.923C68.457-3.957,67.591-4.824,66.536-4.824z"/>
				<path d="M43.048,0.308c-0.258-0.071-1.197-0.395-2.444-0.395c-3.084,0-5.396,1.931-5.396,5.147c0,2.924,2.078,5.147,5.259,5.147
					c1.355,0,2.355-0.361,2.582-0.43l-0.168-2.87c-0.264,0.119-0.947,0.509-1.733,0.509c-1.382,0-2.392-0.979-2.392-2.356
					c0-1.445,1.079-2.377,2.432-2.377c0.761,0,1.44,0.354,1.693,0.48L43.048,0.308z"/>
				<path d="M80.977,0.157v9.845H77.65l-0.05-0.994h-0.072c-0.37,0.333-1.137,1.212-3.281,1.212c-2.38,0-4.462-2.069-4.462-5.15
					c0-2.859,1.848-5.143,4.681-5.143c1.928,0,2.714,0.85,3.01,1.122h0.088l0.033-0.891H80.977z M73.41,4.979
					c0,1.628,0.908,2.646,2.086,2.646c1.064,0,2.104-0.999,2.104-2.512c0-1.526-0.921-2.569-2.104-2.569
					C74.269,2.544,73.41,3.637,73.41,4.979z"/>
				<path d="M24.214,9.637c0.958,0.29,2.413,0.556,3.956,0.556c2.924,0,5.838-1.035,5.838-4.244c0-4.403-6.071-3.794-6.071-5.55
					c0-0.897,0.935-1.091,1.849-1.091c1.268,0,2.873,0.608,3.23,0.752l0.276-3.031c-0.888-0.302-2.231-0.474-3.494-0.474
					c-2.885,0-5.734,1.126-5.734,3.984c0,4.327,6.057,3.425,6.057,5.694c0,0.874-0.874,1.205-1.984,1.205
					c-1.53,0-2.965-0.765-3.586-1.041L24.214,9.637z"/>
				<path d="M63.158,7.319c-0.168,0.045-0.63,0.165-0.948,0.165c-0.695,0-1.452-0.326-1.452-1.528V2.627h2.153V0.153h-2.153v-3.171
					h-3.426v3.171h-1.498v2.474h1.498v3.894c0,2.143,0.994,3.678,3.529,3.678c0.734,0,1.408-0.1,1.873-0.188L63.158,7.319z"/>
				<path d="M-50.16,10.03h-6.014V-3.154h6.171c2.77,0,4.062,1.634,4.062,3.404c0,1.566-1.089,2.429-1.611,2.814v0.068
					c1.202,0.498,2.042,1.566,2.042,3.04C-45.509,8.602-47.641,10.03-50.16,10.03z M-51.182-0.611h-1.452v2.655h1.452
					c1.089,0,1.589-0.635,1.589-1.339C-49.593-0.022-50.047-0.611-51.182-0.611z M-51.023,4.448h-1.611V7.49h1.611
					c1.134,0,1.838-0.568,1.838-1.52C-49.185,5.038-49.797,4.448-51.023,4.448z"/>
				<path d="M-36.277,10.03l-0.045-0.998h-0.068c-0.387,0.341-1.158,1.227-3.291,1.227c-2.383,0-4.47-2.089-4.47-5.152
					c0-2.883,1.838-5.151,4.675-5.151c1.951,0,2.723,0.839,3.018,1.112h0.091l0.045-0.886h3.38v9.849H-36.277z M-38.433,2.565
					c-1.225,0-2.087,1.09-2.087,2.45c0,1.612,0.908,2.634,2.087,2.634c1.066,0,2.111-1,2.111-2.521
					C-36.322,3.609-37.252,2.565-38.433,2.565z"/>
				<path d="M-23.363,10.03V4.948c0-1.271-0.657-2.02-1.814-2.02c-1,0-1.792,0.816-1.792,2.02v5.082h-3.337V0.204h2.996l0.045,1.09
					h0.067c0.408-0.386,1.34-1.338,3.086-1.338c2.655,0,4.085,1.906,4.085,4.152v5.922H-23.363z"/>
				<path d="M-10.669,14.094V9.328h-0.022c-0.25,0.136-1.361,0.931-2.972,0.931c-2.678,0-4.63-2.133-4.63-4.97
					c0-3.541,2.179-5.311,4.652-5.311c1.86,0,2.814,0.864,3.041,1.112h0.068l0.045-0.908h3.245v13.912H-10.669z M-12.689,2.61
					c-1.179,0-2.064,0.999-2.064,2.497c0,1.316,0.749,2.497,2.064,2.497c1.157,0,2.088-0.976,2.088-2.497
					C-10.601,3.656-11.373,2.61-12.689,2.61z"/>
				<path d="M2.494,10.03L2.449,8.942H2.381c-0.408,0.364-1.407,1.339-3.154,1.339c-2.655,0-4.016-1.929-4.016-4.153V0.204h3.335
					v5.084c0,1.247,0.658,1.996,1.815,1.996c0.998,0,1.792-0.815,1.792-1.996V0.204h3.335v9.826H2.494z"/>
				<path d="M10.882,6.083c0.339,1.248,1.316,1.793,2.836,1.793c1.248,0,2.383-0.568,2.791-0.772l0.25,2.475
					c-0.862,0.384-2.111,0.68-3.813,0.68c-3.268,0-5.604-2.089-5.604-5.174c0-3.154,2.223-5.128,5.287-5.128
					c3.63,0,4.992,2.7,4.992,5.514v0.612H10.882z M12.605,2.157c-1.112,0-1.723,0.885-1.792,1.951h3.585
					C14.398,3.042,13.831,2.157,12.605,2.157z"/>
			</g>
		</g>
	</g>
	<g display="inline">
		<path d="M83.453-3.766h0.759l1.125,3.307l1.117-3.307h0.753v3.912h-0.506v-2.308c0-0.081,0.002-0.214,0.007-0.397
			c0.003-0.185,0.004-0.382,0.004-0.594l-1.116,3.299h-0.526l-1.126-3.299v0.121c0,0.095,0.003,0.242,0.007,0.437
			c0.007,0.197,0.01,0.34,0.01,0.434v2.308h-0.507V-3.766z"/>
		<path d="M88.032-3.766h1.564c0.53,0,0.941,0.19,1.233,0.572c0.262,0.344,0.394,0.787,0.394,1.324c0,0.415-0.078,0.792-0.232,1.126
			c-0.271,0.594-0.738,0.889-1.399,0.889h-1.56V-3.766z M89.492-0.308c0.175,0,0.318-0.018,0.433-0.055
			c0.202-0.071,0.366-0.201,0.494-0.399c0.104-0.158,0.176-0.361,0.222-0.607c0.025-0.147,0.039-0.285,0.039-0.41
			c0-0.485-0.095-0.861-0.283-1.127c-0.187-0.27-0.492-0.403-0.91-0.403h-0.917v3.002H89.492z"/>
	</g>
</g>
</svg>
