<svg width="42" height="92" xmlns="http://www.w3.org/2000/svg" xmlns:xlink="http://www.w3.org/1999/xlink"><defs><path id="a" d="M0 .223h42v71.268H0z"/></defs><g fill="none" fill-rule="evenodd"><mask id="b" fill="#fff"><use xlink:href="#a"/></mask><path d="M35.48 71.49H6.52C2.925 71.49 0 68.553 0 64.943V6.772C0 3.162 2.925.223 6.52.223h28.96c3.595 0 6.52 2.939 6.52 6.55v58.17c0 3.609-2.925 6.548-6.52 6.548" fill="#FFD42F" mask="url(#b)"/><path d="M21 66.085c-2.171 0-3.938-1.744-3.938-3.887 0-2.144 1.767-3.888 3.938-3.888 2.17 0 3.938 1.744 3.938 3.888 0 2.143-1.767 3.887-3.938 3.887" fill="#FFEAA5"/><path d="M35.438 88.76C35.438 90.55 28.973 92 21 92c-7.974 0-14.438-1.45-14.438-3.24 0-1.789 6.464-3.239 14.438-3.239 7.973 0 14.438 1.45 14.438 3.24" fill="#E6E6E6"/><path d="M5.676 24.546c0 18.49 7.78 23.322 14.755 27.7 6.977-4.378 14.758-9.21 14.758-27.7l-14.758-8.645-14.755 8.645z" fill="#FFF"/><g><path d="M20.432 18.173l12.487 7.494c0 16.028-6.583 20.216-12.487 24.012V18.173z" fill="#91DDF8"/><path d="M20.432 18.173L7.946 25.667c0 16.028 6.583 20.216 12.486 24.012V18.173z" fill="#009DD6"/></g></g></svg>