<svg xmlns="http://www.w3.org/2000/svg" viewBox="0 0 880.7 237.3"><style>.a{fill:#fff;}</style><path d="m747.7 69.2c-0.2-8.5-6.1-9.6-11.5-9.6l0-3.4 27.3-3.8 1.1 16.8 0.5 0c5.1-9.6 17-19.2 34-19.2 14.3 0 36.4 8.5 36.4 43.8L835.5 155.6l-18.8 0 0-59.4c0-16.6-6.2-30.7-23.9-30.7 -12.1 0-21.7 8.8-25.1 19.2 -0.8 2.3-1.2 5.7-1.2 8.7L766.5 155.6l-18.8 0c0 0 0-82.9-0.1-86.3" class="a"/><path d="m230.4 107.2c0.4 25.4 16.4 35.8 35.1 35.8 13.4 0 21.7-2.4 28.6-5.1l3.5 13.2c-6.7 3-18.2 6.6-34.6 6.6 -31.6 0-50.7-21-50.7-52 0-31.3 18.6-55.8 48.6-55.8 33.6 0 42.4 29.7 42.4 48.6 0 3.8-0.2 6.8-0.7 8.9Zm54.8-13.4c0.2-11.7-4.9-30.5-25.8-30.5 -19.2 0-27.3 17.5-28.8 30.5l54.6 0" class="a"/><path d="m715 130.8c0 9 0.5 17.7 1.5 24.7l-16.8 0 -1.8-13 -0.6 0c-5.6 8.1-16.8 15.4-31.6 15.4 -20.8 0-31.5-14.8-31.5-29.7 0-24.9 22.1-38.6 62-38.4l0-2.1c0-8.5-2.3-24.1-23.5-23.8 -9.8 0-19.8 2.7-27 7.6l-4.3-12.6c8.5-5.3 21.1-9 34.1-9 31.7 0 39.4 21.5 39.4 42.2Zm-18.4-27.9c-20.4-0.5-43.7 3.2-43.7 23.2 0 12.4 8.1 18 17.5 18 13.6 0 22.4-8.6 25.4-17.3 0.6-1.9 0.8-4 0.8-6l0-17.9" class="a"/><path d="m409.8 155.6l0-103.2 18.7 0L428.6 155.6Zm20.6-123.4c0-6-5-11-11-11 -6.1 0-11 4.9-11 11 0 6.2 4.9 11 11 11 6.1 0 11-4.9 11-11" class="a"/><path d="m587.1 155.6l0-103.2 18.8 0L605.9 155.6Zm21.2-123.4c0-6-4.9-11-11-11 -6.1 0-11 4.9-11 11 0 6.2 4.9 11 11 11 6.1 0 11-4.9 11-11" class="a"/><path d="m348.5 52.5l-27.3 3.8 0 3.4c6 0 11.4 1.6 11.6 12.5 0.1 3.9 0.2 8.2 0.2 12.5l-0.3 70.9 18.7 0 0-55c0-3.2 0.2-6.1 0.7-8.9 2.6-13.9 11.9-23.8 25.2-23.8 2.5 0 4.5 0.2 6.5 0.4l0-17.5c-1.7-0.4-3.2-0.6-5.1-0.6 -12.5 0-24 8.7-28.7 22.6l-0.7 0 -0.8-20.2" class="a"/><path d="m515.8 53c15.6 7.8 12.7 26.3 12.7 26.3 -4.5-8.4-13.2-14.6-24.3-14.6 -19.4 0-30.9 17.1-30.9 39.7 0 21.1 10.4 38.4 30.5 38.4 12.5 0 24-8.5 27.4-22.4 0.7-2.6 0.9-5.1 0.9-8.1l0-101.1 18.8 0L550.9 128.9c0 9.2 0.2 19.6 0.9 26.7l-16.9 0 -0.8-17.9 -0.4 0C527.8 149.2 515.5 158 498.6 158c-24.9 0-44.3-21.2-44.3-52.5 -0.2-34.6 21.3-55.4 46.3-55.4 3.8 0 10.5 0.6 15.3 3" class="a"/><path d="m865.4 34.4l3.2 0 0 15.5 -1.9 0 0-13.9 -0.1 0 -5.6 13.9 -1.1 0 -5.6-13.9 -0.1 0 0 13.9 -1.9 0 0-15.5 3.2 0 5 12.6Zm-22.8 1.7l-5.1 0 0-1.7 12.1 0 0 1.7 -5.1 0 0 13.9 -1.9 0 0-13.9" class="a"/><path d="M117 225.2C100.1 225.2 84.2 222.6 69.8 217.6 58.2 213.6 47.6 208 38.1 200.9 22.3 189.1 15.1 177 14.8 176.4 14 175.1 13.2 173.7 12.5 172.5c0 0-0.5-0.9-0.5-1.9 0-1.4 1-3.5 3.6-3.6 1.9 0 3.2 1.7 3.2 1.7 1.3 1.3 7.3 10.9 22.3 21.1 14.2 9.5 38.9 20.9 75.9 20.9 37.1 0 61.7-11.4 75.9-20.9 15.1-10.2 21-19.8 22.3-21.1 0 0 1.3-1.8 3.2-1.7 2.5 0.1 3.6 2.2 3.6 3.6 0 0.9-0.5 1.9-0.5 1.9 -0.7 1.3-1.5 2.6-2.3 4 -0.3 0.5-7.5 12.6-23.3 24.5C186.5 208 175.9 213.6 164.3 217.6 149.9 222.6 134 225.2 117 225.2" fill="#f1b434"/><path d="m53 23.5c0.6-8.6-13.5-7.2-13.5-7.2l0-4.3L77.4 12 101.9 81.5c6 17.7 10.7 33.4 14.5 48.4l0.4 0C120.7 115.3 125.8 99.6 132.2 81.5l25.6-69.5 23.6 0 9 143.6 -18.3 0 -3.4-63.1c-1.1-20-2.4-44.3-2.4-62l-0.4 0c-5.2 16.6-10.9 34.7-18.1 54.5L122.3 154.7 108.3 154.7 84.8 86.3c-6.8-20.4-12.3-38.8-16.3-55.8l-0.5 0c-0.4 17.9-1.5 41.7-2.8 63.4L61.5 155.6 43.8 155.6l9.2-132" class="a"/></svg>