<?xml version="1.0" encoding="utf-8"?>
<!-- Generator: Adobe Illustrator 22.1.0, SVG Export Plug-In . SVG Version: 6.00 Build 0)  -->
<svg version="1.1" id="Layer_1" xmlns="http://www.w3.org/2000/svg" xmlns:xlink="http://www.w3.org/1999/xlink" x="0px" y="0px"
	 viewBox="0 0 226.8 87.9" style="enable-background:new 0 0 226.8 87.9;" xml:space="preserve">
<style type="text/css">
	.st0{fill:#FFFFFF;}
</style>
<g>
	<g>
		<g>
			<g>
				<path class="st0" d="M119.6,55.3v-1.8c-0.9,1-2.3,2.2-4.8,2.2c-2.9,0-5.2-1.8-5.2-4.9c0-3.8,3.5-5.2,7-5.5l1.3-0.1
					c1.3-0.1,1.8-0.8,1.8-1.7c0-1.1-1-1.9-2.6-1.9c-1.8,0-3.5,1.3-4.2,2.3l-2-2.4c1.3-1.6,3.5-2.8,6.4-2.8c3.7,0,5.9,1.9,5.9,5.2
					v11.6h-3.6V55.3z M119.6,47.5l-2.5,0.3c-2.1,0.3-4,1-4,2.8c0,1.3,1.1,2.2,2.5,2.2c1.7,0,3.1-1.1,4-2.2V47.5L119.6,47.5z"/>
				<path class="st0" d="M130.1,55.3h-3.6V39h3.6v1.8c1.3-1.2,3.2-2.2,5.3-2.2c1.9,0,4.6,1.1,4.6,5.1v11.6h-3.6V44.6
					c0-1.6-0.7-3-2.3-3c-1.4,0-3.1,1.2-4,1.9V55.3z"/>
				<path class="st0" d="M152.7,39h3.6v16.3h-3.7v-1.8c-1,0.9-2.6,2.1-4.7,2.1c-2.1,0-5-1.1-5-5.2V39h3.6v10.3
					c0,1.9,0.8,3.2,2.5,3.2c1.4,0,2.7-0.9,3.7-2L152.7,39L152.7,39z"/>
				<path class="st0" d="M163.8,55.3h-3.6V33.8l3.6-3.6V55.3z"/>
				<path class="st0" d="M169.7,31.6c1.2,0,2.3,1,2.3,2.3c0,1.3-1.1,2.3-2.3,2.3c-1.3,0-2.3-1.1-2.3-2.3S168.4,31.6,169.7,31.6z
					 M171.6,55.3h-3.7V39h3.7V55.3z"/>
				<path class="st0" d="M183,42h-3.4v13.4H176V42h-2.2v-3h2.2v-3.4c0-2.7,1.7-5.1,5.1-5.1c1.6,0,2.9,0.4,3.7,0.8l-1.1,2.8
					c-0.5-0.3-1.3-0.6-2-0.6c-1.1,0-2.1,0.8-2.1,2.3V39h4.3L183,42z"/>
				<path class="st0" d="M187.3,48.1c0,2.6,1.9,4.5,4.2,4.5c1.7,0,3.5-1.1,4.2-2.5l2.3,2.1c-1.3,1.9-3.9,3.5-6.8,3.5
					c-4.7,0-7.6-3.5-7.6-8.6c0-4.9,3.1-8.6,7.7-8.6c4.3,0,7.4,2.8,7.2,9.5L187.3,48.1L187.3,48.1z M194.6,45.4c0-2-1.3-3.9-3.5-3.9
					c-2.1,0-3.7,2-3.8,3.9H194.6z"/>
				<path class="st0" d="M89,55.3h-4V32.6h4.2L96,43.8l0,0l6.6-11.2h4.2v22.7h-4v-16h-0.1l-6.9,11.4L89,39.3l0,0V55.3z"/>
			</g>
			<g>
				<polygon class="st0" points="51,34.1 51,59.6 56.7,53.9 56.7,28.4 				"/>
				<polygon class="st0" points="39.7,59.6 45.4,53.9 45.4,28.4 39.7,34.1 				"/>
				<polygon class="st0" points="28.3,59.6 34,53.9 34,28.4 28.3,34.1 				"/>
			</g>
		</g>
	</g>
</g>
</svg>
