<?xml version="1.0" encoding="UTF-8"?>
<svg width="88px" height="20px" viewBox="0 0 88 20" version="1.1" xmlns="http://www.w3.org/2000/svg" xmlns:xlink="http://www.w3.org/1999/xlink">
    <!-- Generator: Sketch 53.2 (72643) - https://sketchapp.com -->
    <title>Group</title>
    <desc>Created with Sketch.</desc>
    <g id="tests" stroke="none" stroke-width="1" fill="none" fill-rule="evenodd">
        <g id="Mobile-Nav---No-Sign-in---Expanded" transform="translate(-64.000000, -20.000000)" fill="#231F20" fill-rule="nonzero">
            <g id="Mobile-Header">
                <g id="01-Atom/Logo/Primary" transform="translate(19.000000, 18.000000)">
                    <g id="Group" transform="translate(45.000000, 2.000000)">
                        <path d="M26.6153846,19.3076923 L26.6153846,17.9230769 C25.9230769,18.6923077 24.8461538,19.6153846 22.9230769,19.6153846 C20.6923077,19.6153846 18.9230769,18.2307692 18.9230769,15.8461538 C18.9230769,12.9230769 21.6153846,11.8461538 24.3076923,11.6153846 L25.3076923,11.5384615 C26.3076923,11.4615385 26.6923077,10.9230769 26.6923077,10.2307692 C26.6923077,9.38461538 25.9230769,8.76923077 24.6923077,8.76923077 C23.3076923,8.76923077 22,9.76923077 21.4615385,10.5384615 L19.9230769,8.69230769 C20.9230769,7.46153846 22.6153846,6.53846154 24.8461538,6.53846154 C27.6923077,6.53846154 29.3846154,8 29.3846154,10.5384615 L29.3846154,19.4615385 L26.6153846,19.4615385 L26.6153846,19.3076923 L26.6153846,19.3076923 Z M26.6153846,13.3076923 L24.6923077,13.5384615 C23.0769231,13.7692308 21.6153846,14.3076923 21.6153846,15.6923077 C21.6153846,16.6923077 22.4615385,17.3846154 23.5384615,17.3846154 C24.8461538,17.3846154 25.9230769,16.5384615 26.6153846,15.6923077 L26.6153846,13.3076923 L26.6153846,13.3076923 Z" id="Shape"></path>
                        <path d="M34.6923077,19.3076923 L31.9230769,19.3076923 L31.9230769,6.76923077 L34.6923077,6.76923077 L34.6923077,8.15384615 C35.6923077,7.23076923 37.1538462,6.46153846 38.7692308,6.46153846 C40.2307692,6.46153846 42.3076923,7.30769231 42.3076923,10.3846154 L42.3076923,19.3076923 L39.5384615,19.3076923 L39.5384615,11.0769231 C39.5384615,9.84615385 39,8.76923077 37.7692308,8.76923077 C36.6923077,8.76923077 35.3846154,9.69230769 34.6923077,10.2307692 L34.6923077,19.3076923 Z" id="Shape"></path>
                        <path d="M52.0769231,6.76923077 L54.8461538,6.76923077 L54.8461538,19.3076923 L52,19.3076923 L52,17.9230769 C51.2307692,18.6153846 50,19.5384615 48.3846154,19.5384615 C46.7692308,19.5384615 44.5384615,18.6923077 44.5384615,15.5384615 L44.5384615,6.76923077 L47.3076923,6.76923077 L47.3076923,14.6923077 C47.3076923,16.1538462 47.9230769,17.1538462 49.2307692,17.1538462 C50.3076923,17.1538462 51.3076923,16.4615385 52.0769231,15.6153846 L52.0769231,6.76923077 L52.0769231,6.76923077 Z" id="Shape"></path>
                        <polygon id="Shape" points="60.6153846 19.3076923 57.8461538 19.3076923 57.8461538 2.76923077 60.6153846 1.0658141e-14"></polygon>
                        <path d="M65.1538462,1.07692308 C66.0769231,1.07692308 66.9230769,1.84615385 66.9230769,2.84615385 C66.9230769,3.84615385 66.0769231,4.61538462 65.1538462,4.61538462 C64.1538462,4.61538462 63.3846154,3.76923077 63.3846154,2.84615385 C63.3846154,1.92307692 64.1538462,1.07692308 65.1538462,1.07692308 Z M66.6153846,19.3076923 L63.7692308,19.3076923 L63.7692308,6.76923077 L66.6153846,6.76923077 L66.6153846,19.3076923 Z" id="Shape"></path>
                        <path d="M75.3846154,9.07692308 L72.7692308,9.07692308 L72.7692308,19.3846154 L70,19.3846154 L70,9.07692308 L68.3076923,9.07692308 L68.3076923,6.76923077 L70,6.76923077 L70,4.15384615 C70,2.07692308 71.3076923,0.230769231 73.9230769,0.230769231 C75.1538462,0.230769231 76.1538462,0.538461538 76.7692308,0.846153846 L75.9230769,3 C75.5384615,2.76923077 74.9230769,2.53846154 74.3846154,2.53846154 C73.5384615,2.53846154 72.7692308,3.15384615 72.7692308,4.30769231 L72.7692308,6.76923077 L76.0769231,6.76923077 L75.3846154,9.07692308 Z" id="Shape"></path>
                        <path d="M78.6923077,13.7692308 C78.6923077,15.7692308 80.1538462,17.2307692 81.9230769,17.2307692 C83.2307692,17.2307692 84.6153846,16.3846154 85.1538462,15.3076923 L86.9230769,16.9230769 C85.9230769,18.3846154 83.9230769,19.6153846 81.6923077,19.6153846 C78.0769231,19.6153846 75.8461538,16.9230769 75.8461538,13 C75.8461538,9.23076923 78.2307692,6.38461538 81.7692308,6.38461538 C85.0769231,6.38461538 87.4615385,8.53846154 87.3076923,13.6923077 L78.6923077,13.7692308 L78.6923077,13.7692308 Z M84.3076923,11.6923077 C84.3076923,10.1538462 83.3076923,8.69230769 81.6153846,8.69230769 C80,8.69230769 78.7692308,10.2307692 78.6923077,11.6923077 L84.3076923,11.6923077 Z" id="Shape"></path>
                        <polygon id="Shape" points="3.07692308 19.3076923 -2.30926389e-14 19.3076923 -2.30926389e-14 1.84615385 3.23076923 1.84615385 8.46153846 10.4615385 8.46153846 10.4615385 13.5384615 1.84615385 16.7692308 1.84615385 16.7692308 19.3076923 13.6923077 19.3076923 13.6923077 7 13.6153846 7 8.30769231 15.7692308 3.07692308 7 3.07692308 7"></polygon>
                    </g>
                </g>
            </g>
        </g>
    </g>
</svg>