<svg xmlns="http://www.w3.org/2000/svg" xmlns:xlink="http://www.w3.org/1999/xlink" width="148" height="33" viewBox="0 0 148 33">
    <defs>
        <path id="a" d="M0 32.083h148v-32H0z"/>
    </defs>
    <g fill="none" fill-rule="evenodd">
        <path fill="#ED2E24" d="M23.185 32.472H147.66V.652H23.185z"/>
        <path fill="#FFF" d="M36.214 15.176h3.53v2.705h-3.53V22.7h-3.217V10.421h7.108v2.703h-3.89zM43.863 22.7h3.217V10.421h-3.217zM54.041 10.421l5.893 7.509h.033V10.42h3.217v12.28h-3.217l-5.894-7.525h-.032V22.7h-3.22V10.421zM78.744 22.7h-3.43l-.804-2.133h-4.433l-.852 2.133H65.81l4.76-12.279h3.514l4.66 12.28zm-6.45-8.483l-1.33 3.908h2.675l-1.31-3.908h-.034zM84.607 10.421l5.892 7.509h.034V10.42h3.214v12.28h-3.214l-5.896-7.525h-.03V22.7h-3.22V10.421z"/>
        <g transform="translate(0 .568)">
            <path fill="#FFF" d="M106.338 10.146v3.827c-.656-.878-1.722-1.353-2.824-1.353-1.969 0-3.3 1.5-3.3 3.405 0 1.94 1.347 3.34 3.349 3.34 1.053 0 2.103-.507 2.775-1.305v3.827a7.32 7.32 0 0 1-2.839.57c-3.693 0-6.633-2.818-6.633-6.448 0-3.616 2.955-6.483 6.535-6.483 1.032 0 1.984.228 2.937.62z"/>
            <mask id="b" fill="#fff">
                <use xlink:href="#a"/>
            </mask>
            <path fill="#FFF" d="M109.965 22.132h3.219V9.853h-3.219zM128.416 22.132h-3.433l-.802-2.133h-4.432l-.854 2.133h-3.415l4.76-12.28h3.514l4.662 12.28zm-6.452-8.483l-1.329 3.907h2.676L122 13.65h-.035zM137.804 19.43v2.701h-7.075V9.853h3.217v9.577z" mask="url(#b)"/>
            <path fill="#ED2E24" d="M1.793 31.904h19.64V.083H1.793z" mask="url(#b)"/>
            <path fill="#FFF" d="M139.651 22.132c-.519 0-.89-.39-.89-.9 0-.543.414-.9.89-.9.476 0 .89.357.89.9 0 .539-.414.9-.89.9zm0-1.643c-.39 0-.696.305-.696.742 0 .408.266.744.696.744.391 0 .695-.302.695-.744 0-.437-.304-.742-.695-.742zm-.178 1.258h-.166v-.998h.38c.244 0 .368.086.368.288 0 .181-.112.255-.261.272l.28.438h-.185l-.259-.427h-.157v.427zm.185-.565c.124 0 .23-.014.23-.16 0-.118-.116-.133-.217-.133h-.198v.293h.185zM10.599 16.852c-.164.114-.187.192.038.408 2.01 1.999 2.511 3.944 2.653 4.542.21.887.36 1.58.375 2.02.064 1.296-.716 1.354-1.56.698-.26-.19-1.071-1.038-1.606-2.178-.414-.883-1.017-2.525-1.253-3.749-.104-.55-.232-.427-.396-.526-.269-.154-.539-.546-.364-.907.122-.222.31-.205-.112-.5-1.528-1.067-4.001-1.942-4.46-2.108-.382-.136-2.7-.9-3.39-1.55-.816-.767-.66-1.327.337-1.956 1.262-.807 4.73-2.437 7.403-3.066 1.416-.336 3.436-.795 5.02.338 1.019-1.129 2.083-1.661 2.656-1.822.556-.162.987-.02 1.236.285.885 1.09-.25 1.293-.674.891-.155-.15-.483-.014-.742.157-.508.335-1.134.752-1.71 1.444.56 1.196.921 3.398-1.54 5.927.441 2.733 2.583 2.353 3.144 2.197 1.693-.478 3.972-2.383 6.419-4.894.762-.78 1.724-.014.911.85-2.712 2.877-5.658 4.788-7.376 5.193-1.723.406-3.304.052-4.085-2.416 0 0-.412.334-.924.722m1.957-7.588c-1.149-.95-3.24-.351-4.278-.087-1.462.37-3.365 1.089-3.955 1.355-.622.28-1.1.54-1.63.817-.414.213-1.407.667-.576 1.14.406.231.887.416 1.684.752.856.362 2.05.832 2.594 1.07.448.196 1.523.698 1.966 1 .848-.488 1.184-.14 1.363.313.112.274.248.114.346.02.315-.276.806-.685 1.069-.953-.488-3.26 1.417-5.427 1.417-5.427m.718.972c-.665.843-1.083 2.502-.966 3.225 1.246-1.36.966-3.225.966-3.225m-2.883 8.398c.235 1.243 1.106 3.374 1.531 3.988.112.162 1.057 1.325.211-1.319-.502-1.582-1.742-2.67-1.742-2.67" mask="url(#b)"/>
            <path fill="#FFF" d="M23.185 11.7c-.209-.27-.69-.312-1.112.119-2.446 2.509-4.726 4.416-6.42 4.892-.56.16-2.701.536-3.144-2.195 2.463-2.53 2.102-4.73 1.541-5.928.576-.694 1.202-1.107 1.71-1.446.26-.168.587-.303.742-.156.423.405 1.56.2.674-.889-.25-.302-.68-.443-1.236-.287-.574.163-1.637.695-2.656 1.822C11.7 6.5 9.68 6.959 8.264 7.295c-2.673.63-6.14 2.26-7.403 3.067-.997.63-1.153 1.189-.337 1.953.69.656 3.008 1.416 3.39 1.552.458.164 2.932 1.042 4.46 2.11.422.293.233.276.112.5-.175.36.095.752.364.907.163.098.291-.025.396.53.236 1.218.84 2.862 1.253 3.747.535 1.137 1.346 1.985 1.605 2.175.846.655 1.625.597 1.562-.698-.017-.44-.167-1.134-.376-2.021-.141-.601-.643-2.544-2.653-4.54-.224-.218-.202-.296-.038-.41.512-.387.923-.722.923-.722.782 2.47 2.363 2.824 4.086 2.418 1.718-.405 4.664-2.318 7.376-5.195.089-.094.152-.187.201-.277V11.7zm-11.052 8.917c.846 2.644-.1 1.483-.21 1.32-.427-.612-1.298-2.742-1.532-3.987 0 0 1.24 1.084 1.742 2.667zm-.994-6.611c-.262.268-.755.677-1.069.954-.098.095-.235.25-.346-.02-.18-.455-.515-.8-1.363-.313-.443-.301-1.518-.803-1.966-.999-.544-.238-1.738-.709-2.594-1.073-.796-.335-1.278-.52-1.685-.751-.83-.472.163-.926.576-1.142.532-.277 1.01-.533 1.631-.814.59-.266 2.493-.986 3.955-1.357 1.037-.263 3.129-.864 4.277.089 0 0-1.905 2.167-1.416 5.426zm1.168-1.23c-.116-.72.301-2.38.966-3.223 0 0 .28 1.86-.966 3.223z" mask="url(#b)"/>
        </g>
    </g>
</svg>
