<?xml version="1.0" encoding="UTF-8"?>
<svg width="395px" height="97px" viewBox="0 0 395 97" version="1.1" xmlns="http://www.w3.org/2000/svg" xmlns:xlink="http://www.w3.org/1999/xlink">
    <!-- Generator: Sketch 45.2 (43514) - http://www.bohemiancoding.com/sketch -->
    <title>Page 1</title>
    <desc>Created with Sketch.</desc>
    <defs></defs>
    <g id="Other-Pages" stroke="none" stroke-width="1" fill="none" fill-rule="evenodd">
        <g id="About-Us" transform="translate(-72.000000, -1935.000000)">
            <g id="Page-1" transform="translate(72.000000, 1935.000000)">
                <polygon id="Fill-1" fill="#EC1D24" points="5.3403373 96.2630231 63.911627 96.2630231 63.911627 0.0280604739 5.3403373 0.0280604739"></polygon>
                <g id="Group-22" transform="translate(0.000000, 16.639746)">
                    <path d="M46.1745595,52.5634336 C46.5444802,52.5634336 46.8658095,52.5271607 46.8658095,52.0887327 C46.8658095,51.7260044 46.513131,51.6818462 46.2184484,51.6818462 L45.624381,51.6818462 L45.624381,52.5634336 L46.1745595,52.5634336 Z M45.624381,54.2714106 L45.1321984,54.2714106 L45.1321984,51.2591889 L46.2670397,51.2591889 C46.9912063,51.2591889 47.361127,51.5162528 47.361127,52.1281597 C47.361127,52.6738291 47.0256905,52.8961973 46.5789643,52.9513951 L47.419123,54.2714106 L46.8611071,54.2714106 L46.0883492,52.9860908 L45.624381,52.9860908 L45.624381,54.2714106 Z M46.1588849,50.4690721 C44.9895595,50.4690721 44.0757302,51.3932406 44.0757302,52.7164103 C44.0757302,53.9496864 44.8704325,54.9637484 46.1588849,54.9637484 C47.3172381,54.9637484 48.2279325,54.0474653 48.2279325,52.7164103 C48.2279325,51.3932406 47.3172381,50.4690721 46.1588849,50.4690721 L46.1588849,50.4690721 Z M46.1588849,55.4368723 C44.6055317,55.4368723 43.5004722,54.2635252 43.5004722,52.7164103 C43.5004722,51.0794018 44.7277937,49.9943712 46.1588849,49.9943712 C47.5743016,49.9943712 48.8047579,51.0794018 48.8047579,52.7164103 C48.8047579,54.3534187 47.5743016,55.4368723 46.1588849,55.4368723 L46.1588849,55.4368723 Z" id="Fill-2" fill="#FEFEFE"></path>
                    <path d="M30.9866528,39.497173 C31.6873075,43.2553532 34.2830218,49.6992997 35.5495298,51.5507909 C35.8865337,52.0459938 38.6985575,55.5613038 36.1812163,47.5670883 C34.6842917,42.7774981 30.9866528,39.497173 30.9866528,39.497173 M39.5841726,14.0998862 C37.6013353,16.6500236 36.3583393,21.6667132 36.7000456,23.8525452 C40.4180615,19.7347909 39.5841726,14.0998862 39.5841726,14.0998862 M37.4336171,11.1539018 C34.018121,8.28361729 27.7811964,10.0972586 24.6823274,10.8936837 C20.3263552,12.0165643 14.6521488,14.1882026 12.8934583,14.9925131 C11.0375853,15.8425589 9.61746627,16.6279444 8.03119643,17.4606424 C6.78976786,18.108822 3.83980754,19.4808811 6.31325992,20.909715 C7.52333929,21.6083612 8.95913294,22.1682244 11.3354028,23.1870177 C13.8919306,24.2799337 17.4532004,25.7056135 19.0739544,26.4231847 C20.4062956,27.0161665 23.6164544,28.534894 24.936256,29.4496 C27.4598671,27.9718766 28.4567718,29.0269428 28.9944107,30.3926935 C29.3251448,31.2175061 29.734252,30.7364968 30.0289345,30.4526225 C30.9741131,29.6199246 32.4365536,28.3834944 33.2124464,27.5697214 C31.7578433,17.7129751 37.4336171,11.1539018 37.4336171,11.1539018 M31.6089345,34.1067155 C31.116752,34.4552501 31.0493512,34.6870808 31.7217917,35.347877 C37.712625,41.384937 39.2095496,47.262712 39.6311964,49.0731991 C40.2534782,51.7589654 40.7049067,53.8549039 40.7597679,55.1859589 C40.9415933,59.1065783 38.6170496,59.2800571 36.0965734,57.2976682 C35.3253829,56.7204572 32.9052242,54.1513948 31.3111171,50.7117846 C30.0728234,48.0417892 28.2780813,43.0708349 27.5758591,39.3773149 C27.2607996,37.7087649 26.8783393,38.0841098 26.3892917,37.7844647 C25.5945893,37.3192263 24.7842123,36.1269543 25.3093115,35.0371924 C25.665125,34.3653566 26.2309782,34.414246 24.973875,33.5247732 C20.4157004,30.2980688 13.0407996,27.6485754 11.6739742,27.1517953 C10.5297282,26.7386005 3.62349802,24.4297563 1.56385516,22.4615612 C-0.871978175,20.1448315 -0.404875,18.4510482 2.5654623,16.5490905 C6.33050198,14.1077715 16.6757401,9.17782131 24.6415734,7.27113231 C28.8705813,6.26180149 34.8911964,4.87870285 39.6123869,8.29465685 C42.650125,4.88343408 45.8210972,3.27796724 47.5343313,2.78276431 C49.1927044,2.30175509 50.4795893,2.73387485 51.220998,3.65173506 C53.8653036,6.94625395 50.4748869,7.56131492 49.2115139,6.34696378 C48.7428433,5.89118783 47.7678829,6.30122847 46.9998274,6.81535636 C45.4793909,7.83414966 43.6188155,9.08950487 41.8993115,11.1885976 C43.5717917,14.8032636 44.645502,21.4601158 37.3066528,29.1136821 C38.6186171,37.3744241 45.0107202,36.2326186 46.6769306,35.7547635 C51.7272877,34.3101588 58.528498,28.5490877 65.8250258,20.9554503 C68.0962758,18.5961395 70.9678631,20.908138 68.5398671,23.5276669 C60.4517718,32.2268369 51.6677242,38.0068329 46.5405615,39.2306465 C41.403994,40.4607685 36.6922083,39.3930857 34.3629623,31.9208835 C34.3629623,31.9208835 33.1372083,32.9302143 31.6089345,34.1067155" id="Fill-4" fill="#EC1D24"></path>
                    <path d="M30.9866528,37.4272562 C31.6873075,41.1870135 34.2830218,47.6341142 35.5495298,49.4808742 C35.8865337,49.9760771 38.6985575,53.4913871 36.1812163,45.4940174 C34.6842917,40.7107356 30.9866528,37.4272562 30.9866528,37.4272562 M39.5841726,12.0283923 C37.6013353,14.5785298 36.3583393,19.5999506 36.7000456,21.7826285 C40.4180615,17.66172 39.5841726,12.0283923 39.5841726,12.0283923 M37.4336171,9.08713925 C34.018121,6.21370057 27.7811964,8.02734189 24.6823274,8.82376699 C20.3263552,9.94507045 14.6521488,12.12144 12.8934583,12.9241735 C11.0375853,13.7726422 9.61746627,14.5548736 8.03119643,15.3891486 C6.78976786,16.0373282 3.83980754,17.4141185 6.31325992,18.8413754 C7.52333929,19.5415987 8.95913294,20.0967306 11.3354028,21.1155239 C13.8919306,22.2147483 17.4532004,23.640428 19.0739544,24.3595762 C20.4062956,24.9462498 23.6164544,26.4634002 24.936256,27.3765292 C27.4598671,25.9051141 28.4567718,26.9475636 28.9944107,28.325931 C29.3251448,29.1460123 29.734252,28.6697343 30.0289345,28.3842829 C30.9741131,27.5468537 32.4365536,26.3104235 33.2124464,25.4998047 C31.7578433,15.6430584 37.4336171,9.08713925 37.4336171,9.08713925 M31.6089345,32.0336447 C31.116752,32.379025 31.0493512,32.615587 31.7217917,33.2748061 C37.712625,39.3118661 39.2095496,45.1912182 39.6311964,47.0064366 C40.2534782,49.6922028 40.7049067,51.7849872 40.7597679,53.1144651 C40.9415933,57.0319304 38.6170496,57.2101403 36.0965734,55.2277515 C35.3253829,54.6505405 32.9052242,52.0830552 31.3111171,48.6481762 C30.0728234,45.9734495 28.2780813,41.0009182 27.5758591,37.3089753 C27.2607996,35.6372711 26.8783393,36.012616 26.3892917,35.714548 C25.5945893,35.2493096 24.7842123,34.0570375 25.3093115,32.9688527 C25.665125,32.2938628 26.2309782,32.3443293 24.973875,31.4548565 C20.4157004,28.2344604 13.0407996,25.5755045 11.6739742,25.0818786 C10.5297282,24.6702609 3.62349802,22.3629937 1.56385516,20.3853361 C-0.871978175,18.0749148 -0.404875,16.3842857 2.5654623,14.4760196 C6.33050198,12.0394319 16.6757401,7.10948167 24.6415734,5.20436974 C28.8705813,4.18557644 34.8911964,2.80563196 39.6123869,6.22474012 C42.650125,2.81351736 45.8210972,1.20805052 47.5343313,0.716001745 C49.1927044,0.236569604 50.4795893,0.667112283 51.220998,1.58181834 C53.8653036,4.87633723 50.4748869,5.4913982 49.2115139,4.27073873 C48.7428433,3.8212711 47.7678829,4.23288883 46.9998274,4.74543964 C45.4793909,5.76581001 43.6188155,7.01958814 41.8993115,9.11552668 C43.5717917,12.7380781 44.645502,19.3933532 37.3066528,27.0437654 C38.6186171,35.3045073 45.0107202,34.1611248 46.6769306,33.6785385 C51.7272877,32.2402421 58.528498,26.4744397 65.8250258,18.8871107 C68.0962758,16.5309541 70.9678631,18.8413754 68.5398671,21.454596 C60.4517718,30.1569202 51.6677242,35.9432245 46.5405615,37.1623069 C41.403994,38.3876976 36.6922083,37.3263231 34.3629623,29.8509667 C34.3629623,29.8509667 33.1372083,30.8650288 31.6089345,32.0336447" id="Fill-6" fill="#FEFEFE"></path>
                    <path d="M381.755744,41.714862 C381.189891,42.0760132 380.213363,42.6784575 379.46255,42.3441167 C378.453105,41.893072 379.221161,40.0573516 380.053482,39.2814285 C380.702411,38.6742529 381.80747,38.3131017 382.639792,39.290891 C383.631994,40.4358506 382.269871,41.3931378 381.755744,41.714862 M351.549216,33.2506768 C350.22001,33.2301748 349.751339,31.7193327 349.525625,30.3567361 C349.144732,28.051046 349.815605,27.2151939 350.456696,27.1189921 C351.171458,27.0070195 352.050804,27.2987791 352.475585,28.2844538 C352.699732,28.8017358 352.49126,29.2133535 352.989712,29.4578009 C353.354931,29.6344337 353.648046,29.6502045 353.842411,29.8725727 C354.039911,30.0996722 354.215466,30.9071368 353.825169,31.7035619 C353.430169,32.49841 352.655843,33.2664476 351.549216,33.2506768 M338.194454,45.7584936 C337.456181,46.8592951 336.081518,46.6463893 335.943581,45.7032958 C335.788403,44.6198423 336.630129,43.282479 337.702272,43.5852782 C338.768145,43.8928087 338.479732,45.329528 338.194454,45.7584936 M307.215169,38.6916008 C307.04745,38.0386899 305.200982,32.2271523 305.528581,26.382496 C305.86245,20.4652941 307.567847,16.5241726 308.926835,14.5638629 C309.991141,13.0214793 312.282768,12.2928686 315.312669,17.225973 C316.085427,18.4892136 317.590188,21.4430833 317.920923,22.8813797 C318.273601,24.415878 318.875506,27.1016442 317.223403,30.3977402 C315.264077,34.2883951 312.690308,36.1383092 308.440923,38.9123919 C307.984792,39.2088828 307.451855,39.6078839 307.215169,38.6916008 M387.287312,45.9966326 C386.403264,45.6291731 385.302907,45.230172 384.011319,44.7964752 C383.879653,44.7554711 383.257371,44.5851465 383.715069,44.3659325 C385.793522,43.36291 386.538065,41.8284117 386.693244,40.6487563 C386.871935,39.3240096 386.439315,38.4881575 385.735526,37.642843 C385.37501,37.2028378 384.577173,36.6413976 383.573998,36.2786693 C382.570823,35.914364 380.724355,35.4869754 379.003284,36.2171632 C377.763423,36.7375994 376.57372,37.821053 375.945169,39.4927571 C375.456121,40.7970018 375.405962,41.5618853 375.449851,42.1201714 C375.498442,42.7431178 375.589355,43.0191067 375.318185,43.1547355 C374.161399,43.7351007 370.847788,45.2664448 367.853938,45.2853698 C367.031022,45.2948323 364.902411,45.2380574 364.485466,43.6436301 C364.485466,43.6436301 364.217431,41.3332088 367.289653,41.4041774 C368.576538,41.4309877 369.396319,40.6156377 369.292867,39.7182795 C369.220764,39.1063727 368.589077,38.4250744 367.154851,38.2500186 C366.281776,38.1443542 365.366379,38.2736747 364.43374,38.7057945 C363.424296,39.1804954 362.535546,39.9942684 361.921101,40.5352066 C361.3913,41.0067534 360.861498,41.5618853 360.032312,42.031855 C358.408423,42.9560235 356.127768,43.6530926 355.121458,43.8770379 C354.508581,44.0126667 353.430169,44.1609122 353.053978,43.8344567 C352.588442,43.4291473 352.671518,42.2289899 352.80005,40.7970018 C352.862748,40.1535534 353.180942,39.0779852 351.989673,38.4313827 C351.325069,38.0670773 349.820308,38.0244962 349.240347,38.6127468 C348.235605,39.6394255 347.097629,40.0400037 345.596002,40.0715453 C343.848284,40.1109723 340.283879,40.8868953 338.971915,39.8649479 C338.012629,39.1205664 337.415427,38.2642123 334.565784,38.1664333 C333.195823,38.1143897 331.940288,38.8840045 333.253819,40.4863172 C333.466994,40.7449582 334.664534,41.6675496 333.263224,42.3567333 C333.263224,42.3567333 330.47001,43.5568908 328.822609,43.7524486 C328.052986,43.8470734 327.103105,43.8896545 326.120308,43.2367437 C324.963522,42.4639747 324.693919,41.8094868 323.297312,40.7906935 C321.831736,39.727742 320.143581,40.2166366 319.372391,40.9278994 C318.598065,41.6407393 316.822133,43.2020479 316.397351,43.621551 C315.193542,44.8138231 314.115129,45.7616478 312.251419,44.9683768 C311.249812,44.5362571 308.842192,41.9246136 309.382966,41.6502018 C311.124415,40.760729 314.996042,38.0465753 316.580744,36.3701399 C318.019673,34.8561437 320.309732,32.4700225 321.215724,28.1283229 C321.557431,26.4991999 321.392847,24.1919327 321.07622,22.5911971 C320.797212,21.2869524 319.654534,17.7747966 317.903681,15.3319006 C314.5838,10.7142121 312.174613,10.3909108 310.647907,10.3057485 C308.926835,10.2079696 307.107014,10.6558601 305.512907,13.5119509 C303.890585,16.4185083 303.026915,19.6751773 302.577054,22.9775816 C302.059792,26.800422 302.191458,30.3299258 302.509653,32.6797741 C303.003403,36.2376652 303.758919,38.656905 304.533244,40.3743445 C304.661776,40.6550647 304.843601,40.940516 303.401538,41.5208813 C302.650724,41.8157951 295.316577,45.586592 287.400903,46.739437 C281.734534,47.573712 278.489891,45.3137572 277.591736,42.5223267 C276.6638,39.6394255 277.367589,33.968248 279.565169,30.4560921 C282.298819,26.0733884 285.201756,24.1477745 286.499613,23.3734285 C289.974673,21.3011461 292.186359,21.119782 293.010843,21.2096755 C293.836895,21.3011461 294.794613,21.4446604 295.385546,22.1354212 C296.523522,23.4743616 297.315089,21.9461716 297.416974,20.8185598 C297.511022,19.8533873 297.424812,18.4608261 295.169236,17.9435441 C289.176835,16.5762162 282.587232,21.1828652 279.591815,24.4537279 C277.005506,27.2546209 273.964633,31.8943885 273.240466,36.9930863 C271.687113,47.8165823 279.21876,50.6300919 284.632768,50.4376882 C292.805506,50.1522369 300.837173,46.7425912 305.155526,44.0804811 C306.070923,43.5111555 306.111677,43.7950298 306.16497,43.8833462 C306.748065,44.812246 309.839097,48.7202488 313.912927,48.3732913 C317.985188,48.029488 320.670248,43.2682852 321.759633,44.1593351 C322.468125,44.7286608 323.035546,45.4209986 324.839692,46.1196448 C326.438502,46.739437 328.054554,47.1857505 332.509276,46.083372 C332.573542,46.0612929 332.714613,45.9919014 332.775744,46.2962777 C332.979514,47.2472566 333.653522,48.7659841 335.862073,49.2674953 C337.288462,49.5876424 339.136498,49.4614761 340.652232,47.2661815 C341.207113,46.4697564 341.729077,45.0756182 341.682054,43.9543148 C341.661677,43.5789699 341.846637,43.6499385 342.12251,43.6893654 C342.398383,43.7256383 345.663403,43.7950298 348.296736,42.9938734 C348.351597,42.9812568 348.408026,42.9844109 348.459752,43.2493603 C348.71995,44.6293048 350.419077,47.5642495 353.68253,47.5058976 C355.359712,47.4712019 358.696835,46.4886814 360.543304,45.447809 C360.613839,45.4052278 360.665565,45.3405676 360.861498,45.6544064 C361.85997,47.2740669 365.093641,48.9867752 369.261518,48.3054769 C372.736577,47.732997 374.727252,46.9823072 377.650565,45.8830829 C377.717966,45.8483872 377.794772,45.745877 378.210149,45.9508973 C378.627093,46.1527635 381.90622,47.6147161 385.327986,48.2045438 C386.304514,48.3717142 387.608641,48.6145844 388.03499,47.8528551 C388.371994,47.2598732 388.193304,46.3704004 387.287312,45.9966326" id="Fill-8" fill="#231F20"></path>
                    <path d="M106.14371,27.2585636 C105.623313,26.7018546 105.153075,26.372245 103.284663,26.4053637 C101.62629,24.6374576 99.502381,22.7354999 97.306369,21.0574874 C93.4598214,18.1130801 89.6602976,15.3878869 88.7292262,14.7617864 C86.7871429,13.443348 89.2308135,13.0001887 91.2982937,12.6768874 C93.4519841,12.3425466 98.5070437,12.0839055 103.816032,12.232151 C109.571746,12.3882819 113.142421,12.8897931 116.496786,13.8991239 C120.88881,15.211254 124.244742,20.0292316 118.721012,24.3204647 C115.912123,26.4999884 111.444861,28.0218701 107.675119,28.9507698 C106.34121,29.2646086 106.502659,27.6402168 106.14371,27.2585636 M107.192341,46.6030196 C106.907063,48.3709257 106.148413,48.9008243 105.629583,47.3268991 C104.342698,43.4393984 104.939901,39.0535405 104.991627,38.5457209 C105.043353,38.0347472 105.502619,36.1012479 106.455635,38.3580485 C107.665714,41.1983685 107.521508,44.5670101 107.192341,46.6030196 M107.483889,32.2232096 C112.712937,30.7044821 118.368333,28.5359979 121.926468,25.4496535 C126.608472,21.3965595 125.586488,15.3184954 119.826071,12.3803965 C113.06248,8.94394044 97.724881,9.27985835 90.5709921,9.83814446 C82.8810317,10.4342805 81.312004,12.9733783 86.3294444,16.6353567 C89.1963294,18.7360265 91.0945238,19.7832072 95.1761905,23.0777261 C97.7860119,25.1847042 100.641925,27.6954146 102.171766,29.7661199 C102.762698,30.5656991 102.047937,30.9583919 101.571429,31.3747409 C100.878611,31.9898018 100.895853,32.8146144 101.458571,33.3019319 C102.062044,33.8302535 102.411587,34.2450254 102.596548,34.7496908 C102.604385,35.3016686 102.334782,39.6544078 102.294028,41.7156506 C102.247004,44.4865791 102.826964,53.2299073 106.476012,53.4506984 C109.596825,53.6289084 110.289643,46.3443786 110.103115,42.7439063 C109.871131,38.2113801 107.590476,33.9879615 107.590476,33.9879615 C106.703294,32.3067948 107.483889,32.2232096 107.483889,32.2232096" id="Fill-10" fill="#231F20"></path>
                    <path d="M156.062776,27.9386003 C156.062776,27.9386003 155.692855,26.3063231 156.976605,26.1549234 C158.25095,25.987753 158.981387,26.265319 158.981387,26.265319 C158.981387,26.265319 160.909363,26.7715615 161.733847,27.7256945 C162.547359,28.8028398 160.418748,29.0567496 160.279244,29.066212 C160.279244,29.066212 160.149145,29.7695895 159.200831,30.1733218 C159.200831,30.1733218 157.893569,30.7189913 157.150593,30.0676575 C156.286923,29.3390468 156.062776,27.9386003 156.062776,27.9386003" id="Fill-12" fill="#231F20"></path>
                    <path d="M226.494411,39.8159007 C226.148002,40.1644353 225.737327,38.4596124 225.5508,37.398238 C225.412863,36.5986587 225.279629,35.4347741 225.604093,35.4379283 C226.41447,35.4473907 227.586931,35.4757782 227.905125,35.5025885 C228.202942,35.5230906 227.61828,38.689866 226.494411,39.8159007 M226.049252,28.9514007 C226.271831,28.3268772 227.279708,27.390092 227.743677,30.6530693 C227.811077,31.1135765 228.016415,32.2679987 227.776593,32.3011173 C227.249927,32.3705088 226.141732,32.3515839 225.635442,32.3011173 C225.158935,32.2585362 225.627605,30.1357873 226.049252,28.9514007 M197.008915,42.6940706 C195.968121,42.4322754 194.980621,39.1898002 197.797347,39.9436441 C200.463597,40.6549069 197.519907,42.8233911 197.008915,42.6940706 M184.596196,39.8206319 C183.632208,40.9009313 181.382903,42.7161497 181.00828,42.8091974 C180.685383,42.8912056 179.60697,42.6909165 179.539569,41.9970015 C179.459629,41.1784973 178.583419,40.3126807 177.108438,39.9830711 C173.160006,33.764647 171.91701,27.0226325 175.647565,23.8826674 C177.707208,22.1431488 180.737109,22.1699592 183.301474,23.7517698 C186.176196,25.5149446 187.365899,28.4703914 187.79695,29.6658176 C188.613597,31.9289266 187.820462,36.1854639 184.596196,39.8206319 M178.097506,44.8940964 C178.646117,45.6447862 176.1758,46.8307499 174.9908,46.8402124 C174.075403,46.8512519 172.987585,46.3670886 173.670998,45.7867233 C174.277605,45.2725955 175.594272,44.0929401 176.580204,44.0550902 C177.384312,44.0251256 177.812228,44.5077119 178.097506,44.8940964 M150.872288,44.2459168 C150.416157,45.0407648 149.345581,45.4634221 148.499153,45.0407648 C148.075938,44.826282 147.477169,44.0613985 147.81574,43.6892077 C148.265601,43.2003131 150.202982,41.0901809 150.905204,41.2620825 C151.7532,41.4797195 151.209292,43.6592432 150.872288,44.2459168 M136.920323,42.78081 C136.65072,42.9558658 136.135026,42.9038222 136.236911,42.0490451 C136.448518,40.2448663 137.189927,39.6392678 137.624113,39.2986187 C138.269907,38.7923762 139.13828,38.6961743 139.309133,39.3995517 C139.479986,40.08085 138.008141,42.0648159 136.920323,42.78081 M237.990165,46.4680217 C236.358438,45.4949637 235.408558,47.4347713 235.408558,47.4347713 C230.930323,47.308605 228.068141,43.2334318 228.068141,43.2334318 C230.181077,40.7290297 230.881732,38.1788923 231.319054,35.9851748 C231.361375,35.7785774 231.344133,35.5735571 231.626276,35.6129841 C235.784748,36.1649619 236.526157,34.8591401 236.673498,34.0595609 C236.856891,32.9950323 235.378776,32.6086478 234.822327,32.5739521 C234.1107,32.5345251 231.504014,32.6039166 231.471097,32.2869236 C231.398994,31.6150878 229.779808,23.5325558 226.684073,23.5325558 C224.535085,23.5325558 222.412744,26.9737431 222.044391,31.3059802 C222.000502,31.8484955 222.044391,32.2064926 221.69328,32.2222633 C219.947129,32.3011173 215.727526,31.9904327 214.964173,31.9257724 C214.203954,31.8658434 212.315165,31.6150878 212.285383,32.8073598 C212.235224,34.5042973 213.68199,35.7943482 214.058181,36.0403726 C214.377942,36.2532783 214.837208,36.4299112 215.387387,36.2785116 C215.975185,36.1208036 216.321593,35.5782883 216.700919,35.2155601 C218.666514,35.3022994 221.005165,35.2991453 221.451891,35.3291098 C221.903319,35.3606514 221.887645,35.3811534 221.933101,35.8069648 C222.092982,37.1679844 222.47701,39.3806268 223.102427,41.0318289 C223.417486,41.8724123 222.803042,41.946535 221.110185,42.5994459 C218.779371,43.496804 217.407843,43.4211042 216.152308,43.0079094 C215.102109,42.6577978 213.464113,41.5428027 210.683438,41.2210785 C207.122169,40.8063066 208.025026,43.6466266 205.617407,44.3941622 C203.984113,44.906713 201.650165,44.44936 201.650165,44.44936 C201.328835,44.4225497 200.082704,43.9573112 200.378954,43.6087767 C201.479312,42.3061091 201.786534,40.774765 201.672109,40.1975539 C201.292784,38.27194 200.256692,36.8241811 195.932069,36.5466151 C193.03697,36.3557885 192.052605,39.4184767 193.065185,42.2004448 C193.381812,43.0757238 193.64828,43.5914288 193.795621,43.9825445 C193.902208,44.250648 191.873915,45.084923 188.129252,44.94614 C185.793736,44.8562465 184.574252,44.6969615 185.227883,44.0803234 C191.936613,37.6710727 193.541692,30.0206605 187.897268,23.6886867 C185.773359,21.3009884 180.309192,16.6911853 173.830879,21.2174032 C167.067288,25.9423331 171.600383,37.358811 173.8058,41.132762 C169.871474,44.0062007 167.426236,44.0803234 166.857248,43.4731479 C164.368121,40.8173461 163.383756,41.0901809 161.966772,41.689471 C161.05451,42.0790097 158.048121,43.6166621 156.319212,44.7884321 C154.880284,45.7630672 154.189034,43.615085 154.189034,43.615085 C154.256435,42.383386 154.300323,41.3693239 153.596534,39.3317373 C152.424073,35.9394395 150.206117,37.3162298 148.583796,38.5826246 C146.343895,40.3158349 143.530304,42.5332085 140.490998,43.4084876 C140.094431,43.5267686 139.298161,43.7633305 140.373438,42.5379398 C141.128954,41.6673919 142.704252,39.2718083 142.028677,37.439242 C141.566276,36.1838868 139.683756,35.8385064 138.400006,35.9331312 C135.531554,36.1491911 132.40447,38.9642778 132.576891,44.3452728 C132.592565,44.7915862 128.74445,46.29612 127.5908,45.5769718 C126.723994,45.0360335 126.172248,43.9573112 125.636177,42.6010229 C125.12205,41.2841616 123.858677,40.3284515 121.933835,40.3678785 C120.726891,40.3931118 119.922784,40.3442223 119.935323,39.4815599 C119.947863,38.9011946 119.745661,37.9312908 119.167268,37.2909966 C118.311435,36.3589426 116.634252,36.9566557 116.61074,38.0432634 C116.554312,40.6328278 115.963379,44.7363885 113.384907,47.0184224 C112.295522,47.9867491 111.958518,49.235796 112.742248,49.890284 C113.580839,50.5983926 114.800323,50.1142292 115.783121,49.354077 C116.966554,48.4330626 118.211117,46.950608 118.673518,44.5818347 C119.037169,42.7681934 121.595264,43.3296336 122.435423,43.8279907 C123.062407,44.1970273 123.330442,44.9335234 124.051474,46.4695987 C124.921415,48.3337066 126.807069,49.4376622 129.177069,49.0355069 C132.536137,48.4693354 134.617724,47.1020076 134.617724,47.1020076 C136.164808,47.6902582 137.885879,47.5215107 139.276216,47.2534072 C141.923657,46.732971 144.240363,45.5154657 144.240363,45.5154657 C144.240363,45.5154657 145.227863,45.0265711 145.34072,45.7898775 C145.660482,47.9567846 146.890938,48.9408822 148.690383,49.2452585 C150.713974,49.5874847 151.853518,49.2247565 151.853518,49.2247565 C152.44445,50.2104311 153.127863,50.685132 154.047962,50.7024799 C156.924252,50.7702943 156.12955,49.6032555 156.864688,48.7752888 C158.389827,47.0405015 160.657942,46.3655115 161.742625,46.0390561 C162.855522,45.7031381 163.449589,46.0059374 163.673736,46.1746849 C164.148677,46.5358361 165.357188,47.4016527 165.921474,47.6934124 C166.734986,48.1286863 167.8808,48.2075402 168.550105,48.0971447 C169.565819,47.9283972 170.192804,46.9206434 170.769629,47.8716223 C171.899768,49.751501 174.023677,50.1000355 176.097427,49.6679158 C177.481494,49.3777332 179.282506,48.7074744 181.984808,46.9553392 C184.444153,47.8889702 187.066514,48.0451011 189.17945,47.9457451 C190.999272,47.8637369 193.662387,47.7501872 196.146812,46.6036505 C196.946216,46.2346139 196.849034,46.2645784 197.99955,46.6777732 C202.031058,48.1255321 206.067268,48.0293303 207.609649,47.8968556 C209.177109,47.7549184 210.583121,47.4710442 210.448319,46.0153999 C210.304113,44.567641 211.611375,44.7143093 212.420185,45.0943855 C213.913974,45.7898775 215.313716,46.1194871 216.544173,46.3907448 C218.556792,46.8402124 221.266931,46.6036505 224.256077,45.263133 C224.837605,45.0013378 225.180879,45.2457851 225.180879,45.2457851 C232.941375,52.8615016 237.389827,50.3854869 237.925899,49.9975254 C238.507427,49.5669827 239.447903,47.3417236 237.990165,46.4680217" id="Fill-14" fill="#231F20"></path>
                    <path d="M242.62828,29.5109484 C242.5358,28.708215 242.725462,24.457986 243.990403,24.0684474 C245.833736,23.5006988 246.020264,25.3600754 245.727149,26.6517035 C245.343121,28.3376013 244.626792,30.0250763 243.71453,30.3089506 C243.462169,30.3878046 242.725462,30.3136818 242.62828,29.5109484" id="Fill-16" fill="#231F20"></path>
                    <path d="M251.993228,44.2653148 C251.870966,45.2194479 250.242375,44.1880379 249.895966,43.7227995 C249.792514,43.5808624 249.748625,43.1440114 249.947692,42.8207101 C250.14676,42.4958317 250.863089,41.2483619 251.301978,41.5211967 C251.877236,41.8776166 252.106085,43.3726879 251.993228,44.2653148 M257.582792,46.4180282 C255.998089,44.5491891 255.045073,43.3127589 254.466681,41.0890769 C254.231562,40.198027 254.269181,36.6007089 254.298962,35.7822047 C254.308367,35.3201204 253.836562,34.5978181 252.629617,34.2051253 C251.557474,33.8502824 250.913248,34.6735179 250.361502,35.9651459 C248.717236,39.8368759 246.11055,42.3191989 246.11055,42.3191989 C244.433367,42.6109585 244.212355,44.0681799 244.293863,44.5491891 C244.500768,45.7903506 245.500808,46.7996815 246.199895,47.0646308 C247.030649,47.3753154 247.402137,47.1229827 247.86924,46.8059898 C248.319101,46.5016134 248.673347,46.5883528 249.049538,46.8059898 C249.431998,47.028358 253.903962,49.0454425 253.903962,49.0454425 C254.957296,49.6920451 256.327256,49.5611475 257.068665,49.2189213 C258.358685,48.6196311 258.33047,47.3059239 257.582792,46.4180282" id="Fill-18" fill="#231F20"></path>
                    <path d="M392.887063,46.1688497 C393.181746,46.1688497 393.441944,46.1404623 393.441944,45.7903506 C393.441944,45.500168 393.162937,45.4638952 392.91998,45.4638952 L392.448175,45.4638952 L392.448175,46.1688497 L392.887063,46.1688497 Z M392.448175,47.5440629 L392.051607,47.5440629 L392.051607,45.1264002 L392.963869,45.1264002 C393.543829,45.1264002 393.840079,45.3298434 393.840079,45.8187381 C393.840079,46.2555891 393.572044,46.4385303 393.211528,46.4795343 L393.887103,47.5440629 L393.440377,47.5440629 L392.819663,46.5094988 L392.448175,46.5094988 L392.448175,47.5440629 Z M392.874524,44.487683 C391.935615,44.487683 391.200476,45.2289104 391.200476,46.295016 C391.200476,47.286999 391.84,48.0991949 392.874524,48.0991949 C393.807163,48.0991949 394.539167,47.3642759 394.539167,46.295016 C394.539167,45.2289104 393.807163,44.487683 392.874524,44.487683 L392.874524,44.487683 Z M392.874524,48.4808481 C391.625258,48.4808481 390.74121,47.5361775 390.74121,46.295016 C390.74121,44.9765777 391.724008,44.1044527 392.874524,44.1044527 C394.014067,44.1044527 395,44.9765777 395,46.295016 C395,47.6103003 394.014067,48.4808481 392.874524,48.4808481 L392.874524,48.4808481 Z" id="Fill-20" fill="#231F20"></path>
                </g>
            </g>
        </g>
    </g>
</svg>