<?xml version="1.0" encoding="UTF-8"?>
<svg width="21px" height="21px" viewBox="0 0 21 21" version="1.1" xmlns="http://www.w3.org/2000/svg" xmlns:xlink="http://www.w3.org/1999/xlink">
    <!-- Generator: Sketch 45.1 (43504) - http://www.bohemiancoding.com/sketch -->
    <title>Shape</title>
    <desc>Created with Sketch.</desc>
    <defs></defs>
    <g id="Home,-Product,-Nav-v3" stroke="none" stroke-width="1" fill="none" fill-rule="evenodd">
        <g id="Hamburger-Nav" transform="translate(-589.000000, -62.000000)" fill="#FFFFFF">
            <g id="Group-14">
                <g id="Group-6" transform="translate(78.000000, 49.000000)">
                    <path d="M526.008576,26.2075472 L525.060034,26.2075472 L524.723842,25.8833619 C525.900515,24.5145798 526.608919,22.7375643 526.608919,20.8044597 C526.608919,16.4939966 523.114923,13 518.80446,13 C514.493997,13 511,16.4939966 511,20.8044597 C511,25.1149228 514.493997,28.6089194 518.80446,28.6089194 C520.737564,28.6089194 522.51458,27.9005146 523.883362,26.7238422 L524.207547,27.0600343 L524.207547,28.0085763 L530.210978,34 L532,32.2109777 L526.008576,26.2075472 L526.008576,26.2075472 Z M518.80446,26.2075472 C515.814751,26.2075472 513.401372,23.7941681 513.401372,20.8044597 C513.401372,17.8147513 515.814751,15.4013722 518.80446,15.4013722 C521.794168,15.4013722 524.207547,17.8147513 524.207547,20.8044597 C524.207547,23.7941681 521.794168,26.2075472 518.80446,26.2075472 L518.80446,26.2075472 Z" id="Shape"></path>
                </g>
            </g>
        </g>
    </g>
</svg>