<?xml version="1.0" encoding="UTF-8"?>
<svg width="16px" height="23px" viewBox="0 0 16 23" version="1.1" xmlns="http://www.w3.org/2000/svg" xmlns:xlink="http://www.w3.org/1999/xlink">
  <title>Fill 1</title>
  <desc>Created with Sketch.</desc>
  <defs></defs>
  <g id="Home,-Product,-Nav-v3" stroke="none" stroke-width="1" fill="none" fill-rule="evenodd">
    <g id="Hamburger-Nav" transform="translate(-767.000000, -59.000000)" fill="#FFFFFF">
      <g id="Group-14">
        <g id="Group-6" transform="translate(78.000000, 49.000000)">
          <g id="Group-4" transform="translate(615.000000, 7.000000)">
            <path d="M78.94,9.38986508 C78.94,7.66186508 80.386,6.27186508 82.134,6.36286508 C83.773,6.44886508 85.002,7.91986508 85.002,9.56086508 L85.002,11.7158651 C85.002,12.1258651 84.67,12.4588651 84.26,12.4588651 L79.682,12.4588651 C79.272,12.4588651 78.94,12.1258651 78.94,11.7158651 L78.94,9.38986508 Z M88.493,12.4758651 C88.134,12.4248651 87.846,12.1588651 87.846,11.7968651 L87.846,9.69586508 C87.846,6.48786508 85.374,3.68986508 82.167,3.59386508 C78.849,3.49386508 76.127,6.15386508 76.127,9.44986508 L76.127,11.7938651 C76.127,12.1588651 75.836,12.4248651 75.474,12.4738651 C74.642,12.5858651 74,13.2998651 74,14.1628651 L74,23.7048651 C74,24.6458651 74.763,25.4088651 75.704,25.4088651 L88.287,25.4088651 C89.229,25.4088651 89.992,24.6458651 89.992,23.7048651 L89.992,14.1628651 C89.992,13.3038651 89.325,12.5938651 88.493,12.4758651 L88.493,12.4758651 Z" id="Fill-1"></path>
          </g>
        </g>
      </g>
    </g>
  </g>
</svg>