<?xml version="1.0" encoding="utf-8"?>
<!-- Generator: Adobe Illustrator 21.1.0, SVG Export Plug-In . SVG Version: 6.00 Build 0)  -->
<svg version="1.1" id="Layer_1" xmlns="http://www.w3.org/2000/svg" xmlns:xlink="http://www.w3.org/1999/xlink" x="0px" y="0px" viewBox="0 0 752.6 163.5" style="enable-background:new 0 0 752.6 163.5;" xml:space="preserve">
  <style type="text/css">
	.st0{fill:#EE3124;}
	.st1{fill:#FFFFFF;}
</style>
  <g>
    <g>
      <rect x="118.2" class="st0" width="634.4" height="163.5" />
    </g>
    <g>
      <g>
        <path class="st1" d="M184.6,74.6h18v13.9h-18v24.8h-16.4V50.2h36.2v13.9h-19.8V74.6z" />
        <path class="st1" d="M223.6,113.3V50.2H240v63.1H223.6z" />
        <path class="st1" d="M275.4,50.2l30,38.6h0.2V50.2H322v63.1h-16.4l-30-38.7h-0.2v38.7H259V50.2H275.4z" />
        <path class="st1" d="M401.3,113.3h-17.5l-4.1-11h-22.6l-4.3,11h-17.4l24.3-63.1h17.9L401.3,113.3z M368.5,69.7l-6.8,20.1h13.6
				l-6.7-20.1H368.5z" />
        <path class="st1" d="M431.2,50.2l30,38.6h0.2V50.2h16.4v63.1h-16.4l-30-38.7h-0.2v38.7h-16.4V50.2H431.2z" />
        <path class="st1" d="M542,51.7v19.7c-3.3-4.5-8.8-6.9-14.4-6.9c-10,0-16.8,7.7-16.8,17.5c0,10,6.9,17.2,17.1,17.2
				c5.4,0,10.7-2.6,14.1-6.7V112c-4.7,1.9-9.4,2.9-14.5,2.9c-18.8,0-33.8-14.5-33.8-33.1c0-18.6,15.1-33.3,33.3-33.3
				C532.3,48.5,537.1,49.7,542,51.7z" />
        <path class="st1" d="M560.5,113.3V50.2h16.4v63.1H560.5z" />
        <path class="st1" d="M654.5,113.3H637l-4.1-11h-22.6l-4.3,11h-17.4l24.3-63.1h17.9L654.5,113.3z M621.6,69.7l-6.8,20.1h13.6
				l-6.7-20.1H621.6z" />
        <path class="st1" d="M702.3,99.4v13.9h-36.1V50.2h16.4v49.2H702.3z" />
      </g>
    </g>
  </g>
  <rect x="9.1" class="st0" width="100.1" height="163.5" />
  <path class="st1" d="M711.8,113.3c-2.6,0-4.5-2-4.5-4.6c0-2.8,2.1-4.6,4.5-4.6c2.4,0,4.5,1.8,4.5,4.6
	C716.3,111.4,714.2,113.3,711.8,113.3z M711.8,104.8c-2,0-3.5,1.6-3.5,3.8c0,2.1,1.4,3.8,3.5,3.8c2,0,3.5-1.6,3.5-3.8
	C715.3,106.4,713.8,104.8,711.8,104.8z M710.9,111.3H710v-5.1h1.9c1.2,0,1.9,0.4,1.9,1.5c0,0.9-0.6,1.3-1.3,1.4l1.4,2.2H713
	l-1.3-2.2h-0.8V111.3z M711.8,108.4c0.6,0,1.2-0.1,1.2-0.8c0-0.6-0.6-0.7-1.1-0.7h-1v1.5H711.8z" />
  <path class="st0" d="M54,86.1c-0.8,0.6-0.9,1,0.2,2.1c10.2,10.3,12.8,20.3,13.5,23.3c1.1,4.6,1.8,8.1,1.9,10.4c0.3,6.7-3.6,7-8,3.6
	c-1.3-1-5.5-5.3-8.2-11.2c-2.1-4.5-5.2-13-6.4-19.3c-0.5-2.8-1.2-2.2-2-2.7c-1.4-0.8-2.7-2.8-1.9-4.7c0.6-1.1,1.6-1.1-0.6-2.6
	c-7.8-5.5-20.4-10-22.7-10.8c-1.9-0.7-13.8-4.6-17.3-8c-4.2-3.9-3.4-6.8,1.7-10c6.4-4.1,24.1-12.5,37.7-15.8
	c7.2-1.7,17.5-4.1,25.6,1.7c5.2-5.8,10.6-8.5,13.5-9.4c2.8-0.8,5-0.1,6.3,1.5c4.5,5.6-1.3,6.6-3.4,4.6c-0.8-0.8-2.5-0.1-3.8,0.8
	c-2.6,1.7-5.8,3.9-8.7,7.4c2.9,6.1,4.7,17.5-7.9,30.4c2.3,14,13.2,12.1,16,11.3c8.6-2.5,20.2-12.2,32.7-25.1c3.9-4,8.8-0.1,4.6,4.4
	c-13.8,14.8-28.8,24.6-37.6,26.7c-8.8,2.1-16.8,0.3-20.8-12.4C58.7,82.4,56.6,84.2,54,86.1z M64,47.2c-5.9-4.9-16.5-1.8-21.8-0.4
	c-7.4,1.9-17.1,5.6-20.2,7c-3.2,1.4-5.6,2.8-8.3,4.2c-2.1,1.1-7.2,3.4-2.9,5.9c2.1,1.2,4.5,2.1,8.6,3.9c4.4,1.9,10.4,4.3,13.2,5.5
	c2.3,1,7.8,3.6,10,5.1c4.3-2.5,6-0.7,6.9,1.6c0.6,1.4,1.3,0.6,1.8,0.1c1.6-1.4,4.1-3.5,5.4-4.9C54.3,58.3,64,47.2,64,47.2z
	 M67.7,52.2c-3.4,4.3-5.5,12.9-4.9,16.6C69.1,61.7,67.7,52.2,67.7,52.2z M53,95.3c1.2,6.4,5.6,17.3,7.8,20.5
	c0.6,0.8,5.4,6.8,1.1-6.8C59.3,100.9,53,95.3,53,95.3z" />
  <path class="st1" d="M118.2,59.7c-1.1-1.4-3.5-1.6-5.7,0.6C100,73.2,88.4,83,79.8,85.4c-2.9,0.8-13.8,2.8-16-11.3
	c12.5-13,10.7-24.3,7.9-30.5c2.9-3.6,6.1-5.7,8.7-7.4c1.3-0.9,3-1.6,3.8-0.8c2.2,2.1,7.9,1,3.4-4.6c-1.3-1.6-3.5-2.3-6.3-1.5
	c-2.9,0.8-8.3,3.6-13.5,9.4c-8.1-5.8-18.4-3.5-25.6-1.7C28.5,40.3,10.8,48.7,4.4,52.8c-5.1,3.2-5.9,6.1-1.7,10
	c3.5,3.4,15.3,7.3,17.3,8c2.3,0.8,14.9,5.4,22.7,10.8c2.2,1.5,1.2,1.4,0.6,2.6c-0.9,1.8,0.5,3.9,1.9,4.7c0.8,0.5,1.5-0.1,2,2.7
	c1.2,6.3,4.3,14.7,6.4,19.3c2.7,5.8,6.9,10.2,8.2,11.2c4.3,3.4,8.3,3.1,8-3.6c-0.1-2.3-0.8-5.8-1.9-10.4C67,105,64.5,95,54.2,84.7
	c-1.1-1.1-1-1.5-0.2-2.1c2.6-2,4.7-3.7,4.7-3.7c4,12.7,12,14.5,20.8,12.4c8.8-2.1,23.8-11.9,37.6-26.7c0.5-0.5,0.8-1,1-1.4V59.7z
	 M61.8,105.5c4.3,13.6-0.5,7.6-1.1,6.8c-2.2-3.1-6.6-14.1-7.8-20.5C53,91.8,59.3,97.4,61.8,105.5z M56.8,71.5
	c-1.3,1.4-3.8,3.5-5.4,4.9c-0.5,0.5-1.2,1.3-1.8-0.1c-0.9-2.3-2.6-4.1-6.9-1.6c-2.3-1.5-7.7-4.1-10-5.1c-2.8-1.2-8.9-3.6-13.2-5.5
	c-4.1-1.7-6.5-2.7-8.6-3.9c-4.2-2.4,0.8-4.8,2.9-5.9c2.7-1.4,5.1-2.7,8.3-4.2c3-1.4,12.7-5.1,20.2-7c5.3-1.4,15.9-4.4,21.8,0.5
	C64,43.7,54.3,54.8,56.8,71.5z M62.7,65.2c-0.6-3.7,1.5-12.2,4.9-16.6C67.7,48.6,69.1,58.2,62.7,65.2z" />
</svg>