<?xml version="1.0" encoding="utf-8"?>
<svg xmlns="http://www.w3.org/2000/svg" width="168" height="36" viewBox="0 0 168 36">
  <g fill="none" fill-rule="evenodd">
    <path fill="#FFF" d="M25 36h143V0H25z" />
    <path fill="#ED2E24" d="M41.2 16.359h4.017v3.048h-4.016v5.432H37.54V11h8.088v3.047H41.2zM49.906 24.839h3.66V11h-3.66zM61.486 11l6.705 8.462h.036V11h3.661v13.839h-3.66l-6.706-8.48h-.036v8.48h-3.663V11zM89.592 24.839H85.69l-.916-2.404h-5.043l-.97 2.404h-3.885L80.29 11h3.998l5.303 13.839zm-7.338-9.561l-1.514 4.404h3.044l-1.492-4.404h-.038zM96.262 11l6.703 8.462h.04V11h3.656v13.839h-3.657l-6.708-8.48h-.034v8.48h-3.663V11zM120.987 11.698v4.314c-.746-.99-1.96-1.525-3.213-1.525-2.24 0-3.754 1.69-3.754 3.837 0 2.186 1.531 3.764 3.81 3.764 1.197 0 2.392-.571 3.157-1.47v4.312a8.397 8.397 0 0 1-3.23.642c-4.202 0-7.547-3.175-7.547-7.266 0-4.075 3.362-7.306 7.435-7.306 1.175 0 2.258.257 3.342.698zM125.114 24.839h3.661V11h-3.661zM146.106 24.839H142.2l-.913-2.404h-5.043l-.971 2.404h-3.886L136.805 11h3.997l5.304 13.839zm-7.34-9.561l-1.513 4.404h3.045l-1.492-4.404h-.04zM156.788 21.793v3.045h-8.05V11h3.66v10.793z" />
    <path fill="#FFF" d="M2 36h22V0H2z" />
    <path fill="#ED2E24" d="M158.89 24.583c-.591 0-1.014-.44-1.014-1.015 0-.61.471-1.012 1.013-1.012.542 0 1.013.401 1.013 1.012a.995.995 0 0 1-1.013 1.015zm0-1.851c-.446 0-.793.344-.793.836 0 .46.303.838.792.838.445 0 .79-.34.79-.838 0-.492-.345-.836-.79-.836zm-.203 1.418h-.19v-1.125h.433c.278 0 .42.097.42.324 0 .205-.13.288-.299.308l.32.493h-.212l-.294-.481h-.178v.48zm.21-.637c.142 0 .262-.016.262-.18 0-.134-.132-.15-.247-.15h-.225v.33h.21z" />
    <path fill="#FFF" d="M12.059 18.633c-.186.129-.212.216.043.46 2.287 2.252 2.858 4.445 3.019 5.119.238 1 .41 1.78.427 2.277.072 1.46-.815 1.526-1.776.786-.295-.215-1.218-1.17-1.827-2.455-.47-.994-1.157-2.846-1.425-4.225-.119-.62-.264-.48-.451-.592-.305-.174-.613-.616-.414-1.023.138-.25.353-.23-.127-.564-1.74-1.202-4.553-2.188-5.075-2.375-.434-.154-3.07-1.014-3.857-1.747-.928-.865-.751-1.495.384-2.205 1.436-.909 5.381-2.746 8.423-3.455 1.61-.378 3.909-.895 5.71.381 1.16-1.272 2.37-1.872 3.023-2.053.632-.183 1.123-.022 1.407.321 1.006 1.228-.286 1.457-.767 1.005-.177-.17-.55-.017-.845.176-.578.378-1.29.847-1.945 1.628.637 1.347 1.048 3.829-1.754 6.68.504 3.08 2.94 2.652 3.578 2.475 1.927-.539 4.52-2.686 7.304-5.515.867-.879 1.962-.017 1.037.959-3.086 3.24-6.438 5.395-8.393 5.852-1.96.457-3.76.058-4.648-2.723 0 0-.469.375-1.051.813m2.226-8.552c-1.306-1.071-3.687-.396-4.867-.098-1.663.417-3.828 1.227-4.5 1.527-.707.317-1.25.61-1.855.921-.47.24-1.6.752-.655 1.284.463.262 1.01.47 1.917.849.973.408 2.332.937 2.95 1.206.51.22 1.734.786 2.238 1.127.965-.55 1.347-.158 1.55.352.127.309.283.128.394.022.358-.31.918-.77 1.216-1.073-.555-3.674 1.612-6.117 1.612-6.117m.817 1.095c-.756.95-1.232 2.82-1.099 3.635 1.418-1.532 1.1-3.635 1.1-3.635m-3.28 9.465c.266 1.401 1.257 3.803 1.742 4.495.127.183 1.202 1.493.24-1.486-.572-1.784-1.982-3.009-1.982-3.009" />
    <path fill="#ED2E24" d="M26.38 12.826c-.239-.303-.787-.351-1.266.135-2.784 2.827-5.377 4.977-7.304 5.514-.638.179-3.074.603-3.577-2.474 2.801-2.852 2.39-5.332 1.753-6.682.655-.782 1.367-1.247 1.945-1.63.295-.188.668-.341.844-.175.482.456 1.774.225.767-1.002-.284-.34-.774-.5-1.406-.323-.653.183-1.863.783-3.022 2.053-1.803-1.275-4.1-.759-5.712-.38-3.04.71-6.986 2.547-8.422 3.457-1.135.71-1.313 1.34-.384 2.2.786.74 3.422 1.596 3.857 1.75.522.184 3.336 1.174 5.075 2.377.48.331.265.312.127.564-.2.405.108.848.414 1.023.186.11.332-.028.45.596.27 1.374.955 3.227 1.426 4.224.61 1.281 1.532 2.237 1.827 2.45.962.739 1.848.674 1.776-.785-.018-.496-.19-1.278-.427-2.279-.161-.677-.732-2.867-3.019-5.116-.255-.245-.23-.334-.043-.461a43.63 43.63 0 0 0 1.05-.815c.89 2.784 2.689 3.183 4.65 2.726 1.954-.457 5.305-2.613 8.391-5.855.101-.107.173-.212.23-.313v-.779zm-12.575 10.05c.962 2.98-.114 1.672-.24 1.487-.485-.689-1.476-3.09-1.743-4.492 0 0 1.412 1.222 1.983 3.006zm-1.131-7.45c-.299.301-.859.763-1.217 1.075-.111.107-.267.282-.394-.022-.204-.513-.585-.902-1.55-.354-.504-.34-1.728-.905-2.237-1.125-.619-.269-1.977-.8-2.952-1.21-.905-.377-1.453-.585-1.916-.846-.944-.532.185-1.044.655-1.287.605-.312 1.149-.601 1.856-.917.671-.3 2.836-1.111 4.5-1.53 1.179-.296 3.56-.973 4.866.1 0 0-2.168 2.442-1.611 6.116zm1.329-1.387c-.132-.812.342-2.682 1.099-3.633 0 0 .319 2.098-1.1 3.633z" />
  </g>
</svg>