<?xml version="1.0" encoding="utf-8"?>
<!-- Generator: Adobe Illustrator 22.1.0, SVG Export Plug-In . SVG Version: 6.00 Build 0)  -->
<svg version="1.1" id="Layer_1" xmlns="http://www.w3.org/2000/svg" xmlns:xlink="http://www.w3.org/1999/xlink" x="0px" y="0px" viewBox="0 0 280 82.8" style="enable-background:new 0 0 280 82.8;" xml:space="preserve">
  <style type="text/css">
	.st0{fill:#A6A6A6;}
	.st1{fill:#FFFFFF;}
</style>
  <title>google play</title>
  <desc>Created with Sketch.</desc>
  <path class="st0" d="M276.6,11.5c-0.3-1.3-0.6-2.6-1.2-3.9c-1.2-2.5-3.3-4.5-5.7-5.7c-1.2-0.6-2.5-1.1-4-1.3
	c-1.3-0.3-2.7-0.4-4.1-0.4c-0.6,0-1.2,0-1.9,0c-0.8,0-1.5,0-2.3,0H22.2c-0.8,0-1.5,0-2.3,0c-0.6,0-1.2,0-1.8,0
	c-1.4,0-2.7,0.2-4.1,0.4C12.5,0.9,11.2,1.4,10,2S7.6,3.5,6.8,4.5c-1,1-1.8,2.1-2.4,3.3s-1.1,2.5-1.3,3.9c-0.3,1.3-0.4,2.7-0.4,4.1
	c0,0.6,0,1.2,0,1.9v47.4c0,0.6,0,1.2,0,1.9c0,1.4,0.2,2.7,0.4,4.1c0.3,1.3,0.6,2.6,1.3,4c0.6,1.1,1.4,2.2,2.4,3.2s2.1,1.8,3.3,2.5
	c1.2,0.6,2.5,1.1,3.9,1.3c1.3,0.3,2.7,0.4,4.1,0.4c0.6,0,1.2,0,1.8,0c0.8,0,1.5,0,2.3,0h235.2c0.7,0,1.5,0,2.2,0c0.6,0,1.2,0,1.9,0
	c1.4,0,2.7-0.2,4.1-0.4c1.4-0.3,2.7-0.7,4-1.3c1.2-0.6,2.4-1.4,3.3-2.5c1-1,1.8-2.1,2.5-3.3c0.6-1.2,1.1-2.5,1.2-4
	c0.3-1.3,0.4-2.7,0.4-4.1c0-0.6,0-1.2,0-1.9c0-0.7,0-1.5,0-2.3V19.9c0-0.8,0-1.5,0-2.3c0-0.6,0-1.2,0-1.9
	C277,14.3,276.8,12.9,276.6,11.5z M275.2,17.6c0,0.8,0,1.5,0,2.3v43c0,0.7,0,1.5,0,2.2s0,1.3,0,1.9c0,1.3-0.2,2.5-0.4,3.8
	c-0.2,1.2-0.5,2.4-1.1,3.4c-0.5,1.1-1.2,2-2.1,2.8c-0.9,0.9-1.8,1.6-2.9,2.1c-1.1,0.5-2.2,1-3.4,1.1c-1.2,0.2-2.5,0.4-3.9,0.4
	c-0.6,0-1.2,0-1.8,0h-2.2H20c-0.6,0-1.2,0-1.8,0c-1.3,0-2.5-0.1-3.9-0.4c-1.1-0.2-2.4-0.6-3.4-1.1c-1.1-0.5-2-1.2-2.9-2.1
	s-1.6-1.8-2.1-2.9S5,71.9,4.8,70.7c-0.2-1.2-0.4-2.5-0.4-3.9c0-0.4,0-1.8,0-1.8V17.6c0,0,0-1.4,0-1.8c0-1.3,0.1-2.5,0.4-3.9
	C5,10.7,5.4,9.5,5.9,8.5c0.5-1.1,1.2-2,2.1-2.9S9.8,4,10.9,3.5s2.2-0.9,3.4-1.1C15.5,2.1,16.8,2,18.1,2H20h239.8h1.8
	c1.3,0,2.5,0.1,3.8,0.4c1.2,0.2,2.4,0.6,3.4,1.1c2.1,1.1,3.9,2.8,4.9,5c0.5,1.1,0.9,2.2,1.1,3.4c0.2,1.3,0.4,2.5,0.4,3.9
	C275.2,16.4,275.2,17,275.2,17.6z" />
  <path d="M120.6,47.4c-2.9,0-4.8,2.5-4.8,6.2c0,3.8,1.9,6.2,4.8,6.2c3,0,4.9-2.5,4.9-6.2S123.4,47.4,120.6,47.4z" />
  <path d="M140.9,47.4c-2.9,0-4.8,2.5-4.8,6.2c0,3.8,1.9,6.2,4.8,6.2c3,0,4.9-2.5,4.9-6.2S143.9,47.4,140.9,47.4z" />
  <path d="M158.4,26.3l-2.3,0.2c-1.2,0.1-1.8,0.5-1.8,1.3s0.7,1.3,1.8,1.3c1.1,0.1,2.3-0.8,2.4-2L158.4,26.3L158.4,26.3z" />
  <path d="M146.1,22.7c-1.6,0-2.5,1.1-2.5,3.2c0,2,0.9,3.2,2.5,3.2s2.5-1.1,2.5-3.2S147.8,22.7,146.1,22.7z" />
  <path d="M97.6,25.2c0-0.3,0-0.5,0-0.8c0.3-2.1-1.2-4-3.3-4.4c-0.3,0-0.5,0-0.7,0h-2.3v8.8h2.3C95.7,28.8,97.4,27.3,97.6,25.2z" />
  <path d="M185.6,25.9c0-2-0.9-3.2-2.5-3.2s-2.5,1.1-2.5,3.2c0,2,0.9,3.2,2.5,3.2S185.6,27.9,185.6,25.9z" />
  <path d="M106.1,22.7c-1.6,0-2.5,1.1-2.5,3.2c0,2,0.9,3.2,2.5,3.2c1.5,0,2.5-1.1,2.5-3.2S107.7,22.7,106.1,22.7z" />
  <path d="M166.9,29c1.6,0,2.5-1.2,2.5-3.2c0-1.9-1-3.2-2.5-3.2s-2.5,1.2-2.5,3.2C164.4,27.8,165.4,29,166.9,29z" />
  <polygon points="98.2,41.7 94.2,52.8 101.9,52.8 " />
  <path d="M232.9,47.1c-0.1,0-0.3,0-0.4,0c-2.6,0.1-4.7,2.1-4.7,4.7h9.3C237.2,49.4,235.4,47.3,232.9,47.1z" />
  <path d="M201.6,47.2c-3.1,0-4.9,2.4-4.9,6.4s1.8,6.4,4.9,6.4c3.1-0.1,4.9-2.4,4.9-6.4S204.6,47.2,201.6,47.2z" />
  <path d="M227.4,22.6c-0.1,0-0.2,0-0.2,0c-1.4,0-2.5,1.1-2.5,2.4h4.7C229.6,23.8,228.6,22.7,227.4,22.6z" />
  <path d="M273.7,8.5c-1.1-2.2-2.8-4-4.9-5c-1.1-0.5-2.2-1-3.4-1.1c-1.2-0.3-2.5-0.4-3.8-0.4h-1.8H20.1h-1.8c-1.3,0-2.6,0.2-3.9,0.4
	C13.2,2.7,12,3,11,3.5C9.9,4,9,4.7,8.1,5.6S6.5,7.4,6,8.5s-1,2.2-1.1,3.4c-0.3,1.3-0.4,2.5-0.4,3.9c0,0.4,0,1.8,0,1.8V65
	c0,0,0,1.4,0,1.8c0,1.3,0.2,2.6,0.4,3.9c0.3,1.2,0.6,2.4,1.1,3.4c0.5,1.1,1.2,2,2.1,2.9s1.8,1.6,2.9,2.1s2.3,1,3.4,1.1
	c1.3,0.3,2.5,0.4,3.9,0.4c0.6,0,1.2,0,1.8,0h237.4h2.2c0.6,0,1.2,0,1.8,0c1.3,0,2.6-0.2,3.9-0.4c1.2-0.2,2.4-0.6,3.4-1.1
	c1.1-0.5,2-1.2,2.9-2.1c0.9-0.8,1.6-1.8,2.1-2.8c0.6-1.1,1-2.2,1.1-3.4c0.2-1.2,0.4-2.5,0.4-3.8c0-0.6,0-1.2,0-1.9s0-1.5,0-2.2v-43
	c0-0.8,0-1.5,0-2.3c0-0.6,0-1.2,0-1.8c0-1.3-0.2-2.5-0.4-3.9C274.5,10.7,274.2,9.5,273.7,8.5z M226.8,20.9c0.2,0,0.4,0,0.6,0
	c2.5,0,4.1,1.8,4.1,4.7v0.8H225v0.1c-0.1,1.3,0.9,2.5,2.2,2.6c0.1,0,0.2,0,0.3,0c0.9,0.1,1.8-0.4,2.2-1.1h1.8
	c-0.5,1.8-2.2,2.9-4,2.6c-2.3,0.1-4.2-1.8-4.3-4.1c0-0.3,0-0.4,0-0.7C222.7,23.4,224.4,21.3,226.8,20.9z M205.1,21.4h1.5V19h1.8
	v-0.1V19v2.3h2v1.5h-2v4.7c0,1,0.4,1.4,1.3,1.4c0.3,0,0.4,0,0.7,0v1.5c-0.4,0.1-0.7,0.1-1,0.1c-2,0-2.8-0.7-2.8-2.5v-5.2h-1.5V21.4z
	 M166.7,21.1c1.1-0.1,2.3,0.6,2.8,1.6h0.2v-5.1h1.8v12.8h-1.8V29h-0.2c-0.6,1.1-1.7,1.7-2.9,1.6c-2.4,0-3.9-1.8-3.9-4.7
	C162.8,23,164.3,21.1,166.7,21.1z M137.7,17.6h1.8v12.8h-1.8V17.6z M89.7,18.2h4.4c3-0.2,5.6,2,5.8,5c0,0.4,0,0.7,0,1.1
	c0,4-2.1,6.1-5.8,6.1h-4.4V18.2z M57.3,21.6c1.7-1.9,4-3.2,6.6-3.4c0.2,2.6-0.6,5.2-2.3,7.2s-4.1,3.2-6.7,3.2
	C54.8,25.9,55.7,23.5,57.3,21.6z M70.2,57.3c-1.8,2.7-3.8,5.4-6.9,5.4c-3,0.1-4-1.8-7.4-1.8s-4.6,1.8-7.4,1.8
	c-2.9,0.2-5.1-2.9-7-5.6c-3.8-5.5-6.8-15.6-2.8-22.5c1.9-3.3,5.4-5.5,9.2-5.6c2.9-0.1,5.6,1.9,7.4,1.9c1.8,0,5.1-2.4,8.5-2
	c3.3,0.1,6.3,1.7,8.2,4.4c-3,1.8-4.7,5-4.8,8.5c0.1,4,2.4,7.6,6.1,9C72.6,53.3,71.6,55.4,70.2,57.3z M105.6,62.8l-2.4-6.9h-9.7
	l-2.4,6.9H87l9.2-25.5h4.3l9.2,25.5H105.6z M106.7,30.6c-2.4,0.3-4.6-1.5-4.7-4c-0.1-0.3-0.1-0.5,0-0.8c-0.3-2.4,1.5-4.6,4-4.7
	c2.4-0.3,4.6,1.5,4.7,4c0,0.3,0,0.5,0,0.8C110.9,28.2,109.2,30.4,106.7,30.6z M113.7,21.2l1.7,7h0.2l1.9-7h1.8l1.9,7h0.2l1.7-7h1.8
	l-2.6,9.2h-1.9l-1.9-6.8h-0.2l-1.9,6.8h-1.8l-2.5-9.2H113.7z M121.9,63.1c-2.4,0.1-4.7-1.1-5.9-3.3h-0.1V69h-3.8V44.3h3.7v3.1h0.1
	c1.2-2.1,3.5-3.3,5.9-3.3c4.7,0,7.8,3.7,7.8,9.5S126.6,63.1,121.9,63.1z M130.9,22.8c-1.1-0.1-2.2,0.9-2.2,2c0,0.1,0,0.2,0,0.4v5.4
	h-1.8v-9.4h1.8v1.5h0.2c0.4-1.1,1.6-1.8,2.7-1.7c1.7-0.1,3.1,1.1,3.3,2.8c0,0.3,0,0.4,0,0.7v6H133V25
	C133,23.5,132.3,22.8,130.9,22.8z M142.4,63.1c-2.4,0.1-4.7-1.1-5.9-3.3h-0.1V69h-3.8V44.3h3.7v3.1h0.1c1.2-2.1,3.5-3.3,5.9-3.3
	c4.7,0,7.8,3.7,7.8,9.5S147,63.1,142.4,63.1z M146.8,30.6c-2.4,0.3-4.6-1.5-4.7-4c0-0.3,0-0.5,0-0.8c-0.3-2.4,1.5-4.6,4-4.7
	c2.4-0.3,4.6,1.5,4.7,4c0,0.3,0,0.5,0,0.8C151,28.2,149.2,30.4,146.8,30.6z M158.4,29.2c-0.6,1-1.7,1.5-2.8,1.5
	c-1.5,0.2-2.9-1-3.1-2.5c0.1-0.2,0.1-0.3,0.1-0.4c0-1.7,1.2-2.6,3.4-2.7l2.5-0.2v-0.8c0-1-0.6-1.5-1.9-1.5c-1.1,0-1.8,0.4-1.9,1.1
	H153c0.2-1.6,1.7-2.6,3.8-2.6c2.3,0,3.6,1.1,3.6,3.1v6.3h-1.8v-1.3H158.4z M169.3,63.4c-5.6,0-9.5-2.9-9.8-7.6h4
	c0.3,2.5,2.7,4.2,6.1,4.2c3.3,0,5.5-1.7,5.5-4c0-2-1.4-3.2-4.7-4l-3.3-0.8c-4.7-1.1-6.9-3.3-6.9-6.9c0-4.4,3.9-7.4,9.3-7.4
	c5.4,0,9,3,9.2,7.4H175c-0.3-2.5-2.4-4-5.4-4c-3.1,0-5.2,1.6-5.2,3.8c0,1.8,1.3,2.9,4.7,3.7l2.8,0.7c5.3,1.2,7.4,3.3,7.4,7
	C179.2,60.4,175.4,63.4,169.3,63.4z M179,26.7c0-0.3,0-0.5,0-0.8c-0.3-2.4,1.5-4.6,4-4.7c2.4-0.3,4.6,1.5,4.7,4c0,0.3,0,0.5,0,0.8
	c0.3,2.4-1.5,4.6-4,4.7C181.4,30.9,179.2,29.1,179,26.7z M190.9,47.3h-3.5v10.3c0,1.6,0.7,2.4,2.3,2.4c0.4,0,0.9,0,1.2-0.1v3
	c-0.7,0.1-1.4,0.2-2.1,0.2c-3.8,0-5.3-1.4-5.3-5V47.3h-2.7v-3h2.7v-4.4h3.9v4.4h3.5L190.9,47.3L190.9,47.3z M192,24.8
	c0,0.1,0,0.2,0,0.4v5.4h-1.8v-9.4h1.8v1.5h0.2c0.4-1.1,1.6-1.8,2.7-1.7c1.7-0.1,3.1,1.1,3.3,2.8c0,0.3,0,0.4,0,0.7v6h-1.8V25
	c0-1.5-0.6-2.2-2-2.2C193,22.7,192,23.7,192,24.8z M201.8,63.1c-5.4,0-8.8-3.6-8.8-9.5s3.4-9.5,8.8-9.5c5.4,0,8.8,3.7,8.8,9.5
	C210.6,59.5,207.2,63.1,201.8,63.1z M212.8,17.6h1.8v5.1h0.2c0.5-1.1,1.6-1.8,2.8-1.7c1.7-0.1,3.1,1.2,3.2,2.9c0,0.2,0,0.4,0,0.5v6
	H219v-5.5c0-1.5-0.7-2.2-2-2.2c-1.2-0.1-2.2,0.8-2.4,1.9c0,0.1,0,0.3,0,0.4v5.4h-1.8V17.6z M223.3,47.9c-0.5-0.2-1.1-0.3-1.8-0.3
	c-2.1-0.1-4,1.6-4,3.7c0,0.2,0,0.4,0,0.6v11h-3.8V44.3h3.6v3.2h0.1c0.5-2,2.4-3.4,4.5-3.3c0.4,0,0.9,0.1,1.3,0.2L223.3,47.9
	L223.3,47.9z M241.1,54.7H228V55c-0.3,2.6,1.8,5,4.4,5.3c0.2,0,0.4,0,0.6,0c1.8,0.2,3.6-0.9,4.3-2.6l3.6-0.1c-0.5,3.3-3.8,5.7-8,5.7
	c-5.4,0-8.8-3.6-8.8-9.4s3.3-9.6,8.6-9.6c5.2,0,8.3,3.5,8.3,9.1L241.1,54.7L241.1,54.7z" />
  <path class="st1" d="M66.9,41.9c0.1-3.5,1.8-6.7,4.8-8.5c-1.8-2.7-4.9-4.3-8.2-4.4c-3.4-0.4-6.8,2-8.5,2c-1.8,0-4.5-2-7.4-1.9
	c-3.9,0.1-7.3,2.3-9.2,5.6c-4,6.9-1,17,2.8,22.5c1.9,2.7,4.1,5.8,7,5.6c2.8-0.1,4-1.8,7.4-1.8s4.4,1.8,7.4,1.8
	c3.1-0.1,5-2.7,6.9-5.4c1.4-1.9,2.5-4,3.1-6.3C69.2,49.5,67.1,45.9,66.9,41.9z" />
  <path class="st1" d="M61.3,25.3c1.7-2,2.5-4.6,2.3-7.2c-2.5,0.3-4.9,1.5-6.6,3.4s-2.5,4.4-2.4,6.9C57.2,28.5,59.8,27.4,61.3,25.3z" />
  <path class="st1" d="M95.9,37.4l-9.2,25.4h4.1l2.4-6.9h9.7l2.4,6.9h4.2l-9.2-25.5h-4.4V37.4z M94.2,52.8l3.9-11.2h0.1l3.8,11.2H94.2
	z" />
  <path class="st1" d="M121.6,44.1c-2.4-0.1-4.7,1.1-5.9,3.3h-0.1v-3.1h-3.7v24.8h3.8v-9.2h0.1c1.2,2.1,3.5,3.3,5.9,3.3
	c4.7,0,7.7-3.7,7.7-9.5S126.2,44.1,121.6,44.1z M120.6,59.9c-2.9,0-4.8-2.5-4.8-6.2s1.9-6.2,4.8-6.2c3,0,4.9,2.5,4.9,6.2
	S123.4,59.9,120.6,59.9z" />
  <path class="st1" d="M142.1,44.1c-2.4-0.1-4.7,1.1-5.9,3.3h-0.1v-3.1h-3.7v24.8h3.8v-9.2h0.1c1.2,2.1,3.5,3.3,5.9,3.3
	c4.7,0,7.7-3.7,7.7-9.5S146.6,44.1,142.1,44.1z M140.9,59.9c-2.9,0-4.8-2.5-4.8-6.2s1.9-6.2,4.8-6.2c3,0,4.9,2.5,4.9,6.2
	S143.9,59.9,140.9,59.9z" />
  <path class="st1" d="M171.6,48.6l-2.8-0.7c-3.3-0.8-4.7-1.8-4.7-3.7c0-2.2,2.1-3.8,5.2-3.8c3.1,0,5.2,1.5,5.4,4h3.9
	c-0.2-4.4-3.9-7.4-9.2-7.4c-5.4,0-9.3,3-9.3,7.4c0,3.5,2.2,5.7,6.9,6.9l3.3,0.8c3.3,0.8,4.7,1.9,4.7,4c0,2.3-2.3,4-5.5,4
	c-3.3,0-5.8-1.7-6.1-4.2h-4c0.3,4.7,4.1,7.6,9.8,7.6c6.1,0,9.8-3,9.8-7.7C178.9,51.9,176.9,49.8,171.6,48.6z" />
  <path class="st1" d="M187.1,39.9h-3.9v4.4h-2.7v3h2.7V58c0,3.6,1.5,5,5.3,5c0.7,0,1.4-0.1,2.1-0.2v-3c-0.4,0.1-0.8,0.1-1.2,0.1
	c-1.6,0-2.3-0.8-2.3-2.4V47.3h3.5v-3h-3.5L187.1,39.9L187.1,39.9z" />
  <path class="st1" d="M201.6,44.1c-5.4,0-8.8,3.6-8.8,9.5s3.4,9.5,8.8,9.5c5.4,0,8.8-3.6,8.8-9.5C210.4,47.8,206.9,44.1,201.6,44.1z
	 M201.6,60c-3.1,0-4.9-2.4-4.9-6.4s1.8-6.4,4.9-6.4s4.9,2.4,4.9,6.4S204.6,59.9,201.6,60z" />
  <path class="st1" d="M217.2,47.5L217.2,47.5l-0.1-3.2h-3.6v18.6h3.8v-11c0-0.3,0-0.4,0-0.6c0-2.1,1.8-3.8,4-3.7
	c0.6,0,1.2,0.1,1.8,0.3v-3.6c-0.4-0.1-0.9-0.2-1.3-0.2C219.6,44,217.8,45.4,217.2,47.5z" />
  <path class="st1" d="M232.4,44.2c-5.3,0-8.6,3.8-8.6,9.6s3.3,9.4,8.8,9.4c4.2,0,7.5-2.4,8-5.7l-3.6,0.1c-0.7,1.8-2.5,2.8-4.3,2.6
	c-0.2,0-0.4,0-0.6,0c-2.6-0.3-4.7-2.6-4.4-5.3v-0.3h13.1v-1.3C240.9,47.7,237.6,44.2,232.4,44.2z M227.8,51.9c0-2.6,2.1-4.7,4.7-4.7
	c0.1,0,0.3,0,0.4,0c2.5,0.2,4.4,2.3,4.2,4.7H227.8z" />
  <path class="st1" d="M99.6,24.3c0-0.4,0-0.7,0-1.1c-0.2-3-2.8-5.2-5.8-5h-4.4v12.2h4.4C97.4,30.4,99.6,28.2,99.6,24.3z M91.2,28.8
	V20h2.3c0.2,0,0.4,0,0.7,0c2.1,0.4,3.6,2.3,3.3,4.4c0,0.3,0,0.5,0,0.8c-0.1,2.1-1.9,3.7-4,3.6H91.2z" />
  <path class="st1" d="M110.4,25.1c-0.2-2.5-2.4-4.2-4.7-4c-2.5,0.2-4.2,2.4-4,4.7c-0.1,0.3-0.1,0.5,0,0.8c0.2,2.5,2.4,4.2,4.7,4
	c2.5-0.2,4.2-2.4,4-4.7C110.4,25.6,110.4,25.3,110.4,25.1z M106.1,29c-1.6,0-2.5-1.1-2.5-3.2c0-2,0.9-3.2,2.5-3.2s2.5,1.1,2.5,3.2
	S107.6,29,106.1,29z" />
  <polygon class="st1" points="116.1,30.4 117.9,23.7 118.2,23.7 120.1,30.4 121.9,30.4 124.7,21.2 122.8,21.2 121.2,28.2 120.9,28.2 
	119.1,21.2 117.2,21.2 115.3,28.2 115.2,28.2 113.4,21.2 111.7,21.2 114.2,30.4 " />
  <path class="st1" d="M132.8,30.5h1.8v-6c0-0.3,0-0.4,0-0.7c-0.2-1.7-1.6-2.9-3.3-2.8c-1.1-0.1-2.3,0.6-2.7,1.7h-0.2v-1.5h-1.8v9.4
	h1.8v-5.4c0-0.2,0-0.3,0-0.4c0-1.1,1.1-2.1,2.2-2c1.4,0,2,0.7,2,2.2v5.5H132.8z" />
  <rect x="137.4" y="17.6" class="st1" width="1.8" height="12.8" />
  <path class="st1" d="M150.4,25.1c-0.2-2.5-2.4-4.2-4.7-4c-2.5,0.2-4.2,2.4-4,4.7c0,0.3,0,0.5,0,0.8c0.2,2.5,2.4,4.2,4.7,4
	c2.5-0.2,4.2-2.4,4-4.7C150.4,25.6,150.4,25.3,150.4,25.1z M146.1,29c-1.6,0-2.5-1.1-2.5-3.2c0-2,0.9-3.2,2.5-3.2s2.5,1.1,2.5,3.2
	S147.8,29,146.1,29z" />
  <path class="st1" d="M160.1,30.5v-6.3c0-1.9-1.3-3.1-3.6-3.1c-2.1,0-3.6,1.1-3.8,2.6h1.8c0.2-0.7,0.9-1.1,1.9-1.1
	c1.3,0,1.9,0.5,1.9,1.5V25l-2.5,0.2c-2.2,0.1-3.4,1.1-3.4,2.7c0,0.1,0,0.2-0.1,0.4c0.2,1.5,1.6,2.6,3.1,2.5c1.1,0,2.2-0.5,2.8-1.5
	h0.2v1.3h1.7V30.5z M155.9,29.1c-1.1,0-1.8-0.5-1.8-1.3s0.6-1.2,1.8-1.3l2.3-0.2v0.8C158.2,28.3,157.1,29.2,155.9,29.1z" />
  <path class="st1" d="M166.4,30.6c1.2,0.1,2.3-0.5,2.9-1.6h0.2v1.4h1.8V17.6h-1.8v5.1h-0.2c-0.5-1-1.7-1.7-2.8-1.6
	c-2.4,0-3.9,1.8-3.9,4.7C162.6,28.8,164.1,30.6,166.4,30.6z M166.9,22.7c1.5,0,2.5,1.2,2.5,3.2c0,1.9-0.9,3.2-2.5,3.2
	c-1.5,0-2.5-1.2-2.5-3.2C164.4,23.9,165.4,22.7,166.9,22.7z" />
  <path class="st1" d="M183.4,30.6c2.5-0.2,4.2-2.4,4-4.7c0-0.3,0-0.5,0-0.8c-0.2-2.5-2.4-4.2-4.7-4c-2.5,0.2-4.2,2.4-4,4.7
	c0,0.3,0,0.5,0,0.8C178.9,29.1,181.1,30.9,183.4,30.6z M180.6,25.9c0-2,0.9-3.2,2.5-3.2s2.5,1.1,2.5,3.2c0,2-0.9,3.2-2.5,3.2
	S180.6,27.9,180.6,25.9z" />
  <path class="st1" d="M195.9,25v5.5h1.8v-6c0-0.3,0-0.4,0-0.7c-0.2-1.7-1.6-2.9-3.3-2.8c-1.1-0.1-2.3,0.6-2.7,1.7h-0.2v-1.5h-1.8v9.4
	h1.8v-5.4c0-0.2,0-0.3,0-0.4c0-1.1,1.1-2.1,2.2-2C195.4,22.8,195.9,23.5,195.9,25z" />
  <path class="st1" d="M206.4,28.1c0,1.8,0.8,2.5,2.8,2.5c0.3,0,0.6,0,1-0.1V29c-0.3,0-0.4,0-0.7,0c-0.9,0-1.3-0.4-1.3-1.4v-4.7h2
	v-1.5h-2V19h-1.8v2.4h-1.5v1.5h1.5V28.1z" />
  <path class="st1" d="M214.4,25c0-0.1,0-0.3,0-0.4c0.2-1.1,1.1-2,2.4-1.9c1.3,0,2,0.7,2,2.2v5.5h1.8v-6c0-0.2,0-0.4,0-0.5
	c-0.1-1.7-1.5-3-3.2-2.9c-1.2-0.1-2.3,0.6-2.8,1.7h-0.2v-5.1h-1.8v12.7h1.8V25z" />
  <path class="st1" d="M222.9,26.5c0.1,2.4,2,4.2,4.3,4.1c1.8,0.3,3.5-0.9,4-2.6h-1.8c-0.4,0.8-1.3,1.2-2.2,1.1c-0.1,0-0.2,0-0.3,0
	c-1.3-0.1-2.3-1.3-2.2-2.6v-0.1h6.5v-0.8c0-2.9-1.6-4.7-4.1-4.7c-0.2,0-0.4,0-0.6,0c-2.4,0.4-4,2.5-3.7,4.8
	C222.9,26,222.9,26.2,222.9,26.5z M227.2,22.6c0,0,0.1,0,0.2,0c1.2,0.1,2.1,1.1,2,2.4h-4.7C224.8,23.7,225.9,22.6,227.2,22.6z" />
</svg>