<?xml version="1.0" encoding="utf-8"?>
<!-- Generator: Adobe Illustrator 22.1.0, SVG Export Plug-In . SVG Version: 6.00 Build 0)  -->
<svg version="1.1" id="Layer_1" xmlns="http://www.w3.org/2000/svg" xmlns:xlink="http://www.w3.org/1999/xlink" x="0px" y="0px" viewBox="0 0 280 82.8" style="enable-background:new 0 0 280 82.8;" xml:space="preserve">
  <style type="text/css">
	.st0{fill:#FFFFFF;stroke:#FFFFFF;stroke-width:0.42;stroke-miterlimit:10;}
	.st1{fill:#FFFFFF;fill-opacity:0;}
	.st2{fill:#A6A6A6;}
	.st3{fill:#FFFFFF;stroke:#FFFFFF;stroke-width:0.4134;stroke-miterlimit:10;}
	.st4{fill:#FFFFFF;}
	.st5{fill:url(#SVGID_1_);}
	.st6{fill:url(#SVGID_2_);}
	.st7{fill:url(#SVGID_3_);}
	.st8{fill:url(#SVGID_4_);}
	.st9{opacity:0.2;enable-background:new    ;}
	.st10{opacity:0.12;enable-background:new    ;}
	.st11{opacity:0.25;fill:#FFFFFF;enable-background:new    ;}
</style>
  <title>google play</title>
  <desc>Created with Sketch.</desc>
  <g>
    <path class="st0" d="M85.6,27.5V14.7h3.7c1.9,0,3.5,0.6,4.6,1.7c1.2,1.3,1.7,2.8,1.7,4.7c0,1.9-0.6,3.4-1.7,4.7
		c-1,1.1-2.7,1.7-4.6,1.7H85.6z M87.1,26h2.3c1.4,0,2.5-0.4,3.3-1.3c0.8-0.9,1.2-2.1,1.2-3.6c0-1.5-0.4-2.8-1.2-3.6
		c-0.8-0.9-2.1-1.3-3.3-1.3h-2.3V26z" />
    <path class="st0" d="M97.8,27.5V14.7h1.7v12.8H97.8z" />
    <path class="st0" d="M105.9,27.7c-0.8,0-1.9-0.2-2.7-0.9s-1.4-1.5-1.7-2.6l1.4-0.6c0.2,0.6,0.6,1.3,1,1.7c0.6,0.4,1.2,0.6,1.9,0.6
		c0.6,0,1.2-0.2,1.9-0.6c0.4-0.4,0.8-0.9,0.8-1.5c0-0.6-0.2-1.3-0.8-1.7c-0.4-0.4-1.2-0.9-2.3-1.1c-1-0.4-1.9-0.9-2.5-1.3
		c-0.6-0.6-0.8-1.3-0.8-2.1s0.4-1.7,1-2.3c0.6-0.6,1.7-1.1,2.7-1.1s1.9,0.2,2.5,0.9c0.6,0.6,1,1.1,1.2,1.7l-1.4,0.6
		c-0.2-0.4-0.4-0.9-0.8-1.1c-0.4-0.4-1-0.4-1.7-0.4c-0.6,0-1,0.2-1.7,0.4c-0.2,0.4-0.4,0.9-0.4,1.5c0,0.4,0.2,0.9,0.6,1.3
		c0.4,0.4,1,0.6,1.9,0.9c0.6,0.2,1,0.4,1.4,0.6c0.4,0.2,0.8,0.4,1.2,0.9c0.4,0.2,0.8,0.6,1,1.3c0.2,0.4,0.4,1.1,0.4,1.7
		c0,0.6-0.2,1.3-0.4,1.7c-0.2,0.4-0.6,0.9-1,1.1c-0.6,0-1,0.2-1.4,0.2C106.7,27.7,106.3,27.7,105.9,27.7z" />
    <path class="st0" d="M114,27.5h-1.7V14.7h4.1c1,0,1.9,0.4,2.7,1.1c0.8,0.6,1.2,1.7,1.2,2.8s-0.4,1.9-1.2,2.8
		c-0.8,0.6-1.7,1.1-2.7,1.1H114V27.5z M114,20.6h2.7c0.6,0,1.2-0.2,1.7-0.6c0.4-0.4,0.6-1.1,0.6-1.5c0-0.6-0.2-1.1-0.6-1.5
		c-0.4-0.4-1-0.6-1.7-0.6H114V20.6z" />
    <path class="st0" d="M132.6,25.8c-1.2,1.3-2.7,1.9-4.6,1.9c-1.9,0-3.3-0.6-4.6-1.9c-1.2-1.3-1.9-2.8-1.9-4.7s0.6-3.4,1.9-4.7
		c1.2-1.3,2.7-1.9,4.6-1.9c1.9,0,3.3,0.6,4.6,1.9c1.2,1.3,1.9,2.8,1.9,4.7C134.5,23,133.8,24.5,132.6,25.8z M124.7,24.7
		c0.8,0.9,2.1,1.5,3.3,1.5c1.2,0,2.5-0.4,3.3-1.5c0.8-0.9,1.4-2.1,1.4-3.6c0-1.5-0.4-2.8-1.4-3.6c-0.8-0.9-2.1-1.5-3.3-1.5
		c-1.2,0-2.5,0.4-3.3,1.5c-0.8,0.9-1.4,2.1-1.4,3.6C123.3,22.6,123.7,23.8,124.7,24.7z" />
    <path class="st0" d="M136.5,27.5V14.7h1.9l6,10l0,0v-2.6v-7.5h1.7v12.8h-1.7L138,17l0,0v2.6v7.9H136.5z" />
    <path class="st0" d="M148.9,27.5V14.7h1.7v12.8H148.9z" />
    <path class="st0" d="M153.5,27.5V14.7h4.6c1,0,1.9,0.4,2.5,1.1c0.6,0.6,1,1.5,1,2.6c0,0.6-0.2,1.1-0.4,1.7
		c-0.2,0.4-0.6,0.9-1.2,1.1l0,0c0.6,0.2,1,0.6,1.4,1.1c0.4,0.4,0.6,1.1,0.6,1.9c0,1.1-0.4,1.9-1,2.6c-0.8,0.6-1.7,1.1-2.7,1.1h-4.8
		V27.5z M155.1,20.2h2.9c0.6,0,1-0.2,1.4-0.6c0.4-0.4,0.6-0.9,0.6-1.3c0-0.4-0.4-1.1-0.6-1.5c-0.4-0.4-0.8-0.6-1.4-0.6h-2.9V20.2z
		 M155.1,26h3.3c0.6,0,1-0.2,1.4-0.6c0.4-0.4,0.6-0.9,0.6-1.5c0-0.4-0.2-1.1-0.6-1.5c-0.4-0.4-0.8-0.6-1.4-0.6h-3.1V26H155.1z" />
    <path class="st0" d="M164,27.5V14.7h1.7V26h5.4v1.5H164z" />
    <path class="st0" d="M180.4,16.2h-5.6v4h5.2v1.5h-5.2v4h5.6v1.7h-7.2V14.7h7.2V16.2z" />
    <path class="st0" d="M189.9,27.7c-0.8,0-1.9-0.2-2.7-0.9c-0.8-0.6-1.4-1.5-1.7-2.6l1.4-0.6c0.2,0.6,0.6,1.3,1,1.7
		c0.6,0.4,1.2,0.6,1.9,0.6c0.6,0,1.2-0.2,1.9-0.6c0.4-0.4,0.8-0.9,0.8-1.5c0-0.6-0.2-1.3-0.8-1.7c-0.4-0.4-1.2-0.9-2.3-1.1
		c-1-0.4-1.9-0.9-2.5-1.3c-0.6-0.6-0.8-1.3-0.8-2.1s0.4-1.7,1-2.3c0.6-0.6,1.7-1.1,2.7-1.1c1,0,1.9,0.2,2.5,0.9
		c0.6,0.6,1,1.1,1.2,1.7l-1.4,0.6c-0.2-0.4-0.4-0.9-0.8-1.1c-0.4-0.4-1-0.4-1.7-0.4c-0.6,0-1,0.2-1.7,0.4c-0.4,0.4-0.6,0.9-0.6,1.3
		c0,0.4,0.2,0.9,0.6,1.3c0.4,0.4,1,0.6,1.9,0.9c0.6,0.2,1,0.4,1.4,0.6c0.4,0.2,0.8,0.4,1.2,0.9c0.4,0.2,0.8,0.6,1,1.3
		c0.2,0.4,0.4,1.1,0.4,1.7s-0.2,1.3-0.4,1.7c-0.2,0.4-0.6,0.9-1,1.1s-0.8,0.4-1.2,0.6C190.9,27.7,190.5,27.7,189.9,27.7z" />
    <path class="st0" d="M200.7,27.7c-1.4,0-2.5-0.4-3.3-1.5c-0.8-0.9-1.2-2.1-1.2-3.6v-7.9h1.7v8.1c0,1.1,0.2,1.9,0.8,2.6
		c0.4,0.6,1.2,0.9,2.3,0.9c1,0,1.7-0.2,2.3-0.9c0.4-0.6,0.8-1.5,0.8-2.6v-8.1h1.7v8.1c0,1.5-0.4,2.8-1.2,3.6
		C203.4,27.2,202.1,27.7,200.7,27.7z" />
    <path class="st0" d="M207.9,27.5V14.7h4.1c1,0,1.9,0.4,2.7,1.1c0.8,0.6,1.2,1.7,1.2,2.8c0,0.9-0.2,1.7-0.8,2.3
		c-0.6,0.6-1.2,1.1-2.1,1.3l0,0l3.5,5.1l0,0h-1.9l-3.3-5.1h-1.9v5.3H207.9z M209.6,20.6h2.5c0.6,0,1.2-0.2,1.7-0.6
		c0.4-0.4,0.6-1.1,0.6-1.7c0-0.6-0.2-1.1-0.6-1.5c-0.4-0.4-1-0.6-1.7-0.6h-2.7v4.5H209.6z" />
  </g>
  <polyline class="st1" points="300.3,-20.4 300.3,103.6 -20.1,103.6 " />
  <g>
    <path d="M269.3,82.9H10.9c-5.7,0-10.3-4.7-10.3-10.3v-62c0-5.7,4.7-10.3,10.3-10.3h258.4c5.7,0,10.3,4.7,10.3,10.3v62
		C279.7,78.3,275,82.9,269.3,82.9z" />
  </g>
  <g>
    <g>
      <path class="st2" d="M269.3,1.9c4.8,0,8.7,3.9,8.7,8.7v62c0,4.8-3.9,8.7-8.7,8.7H10.9c-4.8,0-8.7-3.9-8.7-8.7v-62
			c0-4.8,3.9-8.7,8.7-8.7H269.3 M269.3,0.2H10.9C5.2,0.2,0.6,4.9,0.6,10.6v62c0,5.7,4.7,10.3,10.3,10.3h258.4
			c5.7,0,10.3-4.7,10.3-10.3v-62C279.7,4.9,275,0.2,269.3,0.2L269.3,0.2z" />
    </g>
  </g>
  <g>
    <path class="st3" d="M98.6,21.4c0,1.7-0.5,3.1-1.5,4.1c-1.2,1.2-2.7,1.8-4.6,1.8c-1.8,0-3.3-0.6-4.6-1.9c-1.3-1.2-1.9-2.8-1.9-4.6
		c0-1.8,0.6-3.4,1.9-4.6c1.3-1.2,2.8-1.9,4.6-1.9c0.9,0,1.7,0.2,2.5,0.5c0.8,0.3,1.5,0.8,1.9,1.4l-1.1,1.1c-0.8-1-2-1.5-3.4-1.5
		c-1.3,0-2.4,0.5-3.4,1.4c-1,0.9-1.4,2.1-1.4,3.6s0.5,2.7,1.4,3.6c1,0.9,2.1,1.4,3.4,1.4c1.4,0,2.5-0.5,3.5-1.4
		c0.6-0.6,0.9-1.4,1-2.5h-4.5v-1.5h6C98.6,20.8,98.6,21.1,98.6,21.4z" />
    <path class="st3" d="M108.1,16.2h-5.6v3.9h5.1v1.5h-5.1v3.9h5.6v1.5h-7.2V14.7h7.2V16.2z" />
    <path class="st3" d="M114.9,27.1h-1.6V16.2h-3.5v-1.5h8.5v1.5h-3.5V27.1z" />
    <path class="st3" d="M124.5,27.1V14.7h1.6v12.4H124.5z" />
    <path class="st3" d="M133.2,27.1h-1.6V16.2h-3.5v-1.5h8.5v1.5h-3.5V27.1z" />
    <path class="st3" d="M152.8,25.5c-1.2,1.3-2.7,1.9-4.5,1.9c-1.8,0-3.3-0.6-4.5-1.9c-1.2-1.3-1.8-2.8-1.8-4.6s0.6-3.3,1.8-4.6
		c1.2-1.3,2.7-1.9,4.5-1.9c1.8,0,3.3,0.6,4.5,1.9c1.2,1.3,1.8,2.8,1.8,4.6C154.6,22.7,154,24.2,152.8,25.5z M144.8,24.5
		c0.9,0.9,2,1.4,3.4,1.4s2.5-0.5,3.4-1.4c0.9-0.9,1.4-2.1,1.4-3.6s-0.5-2.6-1.4-3.6c-0.9-0.9-2-1.4-3.4-1.4s-2.5,0.5-3.4,1.4
		c-0.9,0.9-1.4,2.1-1.4,3.6S143.9,23.5,144.8,24.5z" />
    <path class="st3" d="M156.8,27.1V14.7h1.9l6,9.6h0.1l-0.1-2.4v-7.3h1.6v12.4h-1.7L158.4,17h-0.1l0.1,2.4v7.7H156.8z" />
  </g>
  <path class="st4" d="M141.4,45.2c-4.9,0-8.8,3.7-8.8,8.8c0,5.1,4,8.8,8.8,8.8c4.9,0,8.8-3.7,8.8-8.8
	C150.3,48.9,146.3,45.2,141.4,45.2z M141.4,59.3c-2.7,0-5-2.2-5-5.3c0-3.2,2.3-5.3,5-5.3c2.7,0,5,2.2,5,5.3
	C146.4,57.1,144.1,59.3,141.4,59.3z M122.2,45.2c-4.9,0-8.8,3.7-8.8,8.8c0,5.1,4,8.8,8.8,8.8c4.9,0,8.8-3.7,8.8-8.8
	C131,48.9,127,45.2,122.2,45.2z M122.2,59.3c-2.7,0-5-2.2-5-5.3c0-3.2,2.3-5.3,5-5.3c2.7,0,5,2.2,5,5.3
	C127.1,57.1,124.9,59.3,122.2,59.3z M99.3,47.9v3.7h8.9c-0.3,2.1-1,3.6-2,4.7c-1.3,1.3-3.3,2.7-6.9,2.7c-5.5,0-9.8-4.4-9.8-9.9
	s4.3-9.9,9.8-9.9c3,0,5.1,1.2,6.7,2.7l2.6-2.6c-2.2-2.1-5.2-3.8-9.4-3.8c-7.5,0-13.9,6.1-13.9,13.7c0,7.5,6.3,13.7,13.9,13.7
	c4.1,0,7.1-1.3,9.5-3.8c2.5-2.5,3.2-5.9,3.2-8.7c0-0.9-0.1-1.7-0.2-2.3H99.3z M192.9,50.8c-0.7-2-3-5.6-7.5-5.6
	c-4.5,0-8.3,3.6-8.3,8.8c0,4.9,3.7,8.8,8.7,8.8c4,0,6.4-2.5,7.3-3.9l-3-2c-1,1.5-2.4,2.4-4.3,2.4c-2,0-3.4-0.9-4.3-2.7l11.8-4.9
	L192.9,50.8z M181,53.7c-0.1-3.4,2.6-5.1,4.6-5.1c1.5,0,2.8,0.8,3.3,1.9L181,53.7z M171.4,62.2h3.9V36.4h-3.9V62.2z M165.1,47.2
	h-0.1c-0.9-1-2.5-2-4.6-2c-4.4,0-8.4,3.9-8.4,8.8c0,4.9,4,8.8,8.4,8.8c2.1,0,3.8-0.9,4.6-2h0.1V62c0,3.4-1.8,5.2-4.7,5.2
	c-2.4,0-3.8-1.7-4.4-3.1l-3.4,1.4c1,2.3,3.5,5.2,7.8,5.2c4.5,0,8.4-2.7,8.4-9.2V45.7h-3.7V47.2z M160.6,59.3c-2.7,0-4.9-2.2-4.9-5.3
	c0-3.1,2.2-5.4,4.9-5.4c2.6,0,4.7,2.3,4.7,5.4C165.3,57.1,163.3,59.3,160.6,59.3z M211,36.4h-9.2v25.8h3.9v-9.8h5.4
	c4.3,0,8.5-3.1,8.5-8S215.3,36.4,211,36.4z M211.1,48.9h-5.5V40h5.5c2.9,0,4.5,2.4,4.5,4.4C215.7,46.4,214,48.9,211.1,48.9z
	 M235,45.1c-2.8,0-5.7,1.2-6.9,4l3.4,1.4c0.7-1.4,2.1-1.9,3.5-1.9c2,0,4,1.2,4.1,3.3v0.3c-0.7-0.4-2.2-1-4-1c-3.7,0-7.4,2-7.4,5.8
	c0,3.5,3,5.7,6.4,5.7c2.6,0,4-1.2,4.9-2.5h0.1v2h3.7v-9.9C242.8,47.7,239.4,45.1,235,45.1z M234.5,59.3c-1.3,0-3-0.6-3-2.2
	c0-2,2.2-2.8,4.1-2.8c1.7,0,2.5,0.4,3.5,0.9C238.8,57.6,236.7,59.3,234.5,59.3z M256.4,45.7L252,56.9h-0.1l-4.6-11.2h-4.2l6.9,15.7
	l-3.9,8.7h4l10.6-24.4H256.4z M221.6,62.2h3.9V36.4h-3.9V62.2z" />
  <g>
    <linearGradient id="SVGID_1_" gradientUnits="userSpaceOnUse" x1="45.6537" y1="75.772" x2="10.9611" y2="41.0794" gradientTransform="matrix(1 0 0 -1 0 94)">
      <stop offset="0" style="stop-color:#00A0FF" />
      <stop offset="6.574450e-03" style="stop-color:#00A1FF" />
      <stop offset="0.2601" style="stop-color:#00BEFF" />
      <stop offset="0.5122" style="stop-color:#00D2FF" />
      <stop offset="0.7604" style="stop-color:#00DFFF" />
      <stop offset="1" style="stop-color:#00E3FF" />
    </linearGradient>
    <path class="st5" d="M22.2,15.8c-0.6,0.6-1,1.6-1,2.9v45.7c0,1.3,0.4,2.3,1,2.9l0.2,0.1l25.6-25.6v-0.3v-0.3L22.3,15.7L22.2,15.8z" />
    <linearGradient id="SVGID_2_" gradientUnits="userSpaceOnUse" x1="70.5317" y1="52.4297" x2="20.5119" y2="52.4297" gradientTransform="matrix(1 0 0 -1 0 94)">
      <stop offset="0" style="stop-color:#FFE000" />
      <stop offset="0.4087" style="stop-color:#FFBD00" />
      <stop offset="0.7754" style="stop-color:#FFA500" />
      <stop offset="1" style="stop-color:#FF9C00" />
    </linearGradient>
    <path class="st6" d="M56.5,50.4l-8.5-8.5v-0.3v-0.3l8.5-8.5l0.2,0.1l10.1,5.7c2.9,1.6,2.9,4.3,0,6l-10.1,5.7L56.5,50.4z" />
    <linearGradient id="SVGID_3_" gradientUnits="userSpaceOnUse" x1="51.9115" y1="47.6862" x2="4.8656" y2="0.6403" gradientTransform="matrix(1 0 0 -1 0 94)">
      <stop offset="0" style="stop-color:#FF3A44" />
      <stop offset="1" style="stop-color:#C31162" />
    </linearGradient>
    <path class="st7" d="M56.7,50.3l-8.7-8.7L22.2,67.3c1,1,2.5,1.1,4.3,0.1L56.7,50.3" />
    <linearGradient id="SVGID_4_" gradientUnits="userSpaceOnUse" x1="15.6743" y1="93.4125" x2="36.6823" y2="72.4045" gradientTransform="matrix(1 0 0 -1 0 94)">
      <stop offset="0" style="stop-color:#32A071" />
      <stop offset="6.850000e-02" style="stop-color:#2DA771" />
      <stop offset="0.4762" style="stop-color:#15CF74" />
      <stop offset="0.8009" style="stop-color:#06E775" />
      <stop offset="1" style="stop-color:#00F076" />
    </linearGradient>
    <path class="st8" d="M56.7,32.8L26.5,15.7c-1.8-1-3.3-0.9-4.3,0.1l25.8,25.8L56.7,32.8z" />
    <g>
      <path class="st9" d="M56.5,50.1l-30,17c-1.7,1-3.2,0.9-4.1,0l0,0l-0.2,0.2l0,0l0.2,0.1l0,0c1,0.9,2.5,0.9,4.1,0l30.2-17.2
			L56.5,50.1z" />
      <path class="st10" d="M22.2,67c-0.6-0.6-1-1.6-1-2.9v0.3c0,1.3,0.4,2.3,1,2.9l0.2-0.2L22.2,67z" />
    </g>
    <path class="st10" d="M66.8,44.3l-10.3,5.9l0.2,0.2l10.1-5.7c1.4-0.8,2.2-1.9,2.2-3l0,0C68.8,42.5,68.1,43.5,66.8,44.3z" />
    <path class="st11" d="M26.5,16l40.3,22.9c1.3,0.7,2,1.7,2.2,2.7l0,0c0-1.1-0.7-2.2-2.2-3L26.5,15.7c-2.9-1.6-5.3-0.3-5.3,3V19
		C21.2,15.7,23.6,14.3,26.5,16z" />
  </g>
</svg>