<?xml version="1.0" encoding="UTF-8"?>
<svg width="24px" height="19px" viewBox="0 0 24 19" version="1.1" xmlns="http://www.w3.org/2000/svg" xmlns:xlink="http://www.w3.org/1999/xlink">
  <title></title>
  <desc>Created with Sketch.</desc>
  <defs></defs>
  <g id="Symbols" stroke="none" stroke-width="1" fill="none" fill-rule="evenodd" fill-opacity="0.5">
    <g id="Footer" transform="translate(-1067.000000, -294.000000)" fill="#FFFFFF">
      <g id="08-Footer">
        <g id="Group-3" transform="translate(1024.000000, 291.000000)">
          <path d="M67,5.25625 C66.1167513,5.62734375 65.1573604,5.89453125 64.1675127,5.9984375 C65.1878173,5.4046875 65.964467,4.46953125 66.3299492,3.35625 C65.3857868,3.90546875 64.319797,4.30625 63.2081218,4.5140625 C62.3096447,3.57890625 61.0304569,3 59.6142132,3 C56.8883249,3 54.6954315,5.15234375 54.6954315,7.79453125 C54.6954315,8.165625 54.7411168,8.53671875 54.8172589,8.89296875 C50.7360406,8.68515625 47.0964467,6.78515625 44.6751269,3.87578125 C44.248731,4.58828125 44.0050761,5.4046875 44.0050761,6.2953125 C44.0050761,7.9578125 44.8730964,9.42734375 46.1979695,10.2882813 C45.3908629,10.2585937 44.6294416,10.0359375 43.9746193,9.6796875 L43.9746193,9.7390625 C43.9746193,12.0695313 45.6649746,13.9992187 47.9187817,14.4445312 C47.5076142,14.5484375 47.0659898,14.6078125 46.6243655,14.6078125 C46.3045685,14.6078125 46,14.578125 45.6954315,14.5335937 C46.319797,16.4335938 48.1319797,17.8140625 50.2944162,17.8585937 C48.6040609,19.15 46.4873096,19.9070312 44.1878173,19.9070312 C43.7766497,19.9070312 43.3959391,19.8921875 43,19.8476562 C45.177665,21.2132813 47.7664975,22 50.5532995,22 C59.5989848,22 64.5482234,14.696875 64.5482234,8.35859375 C64.5482234,8.15078125 64.5482234,7.94296875 64.5329949,7.73515625 C65.4923858,7.05234375 66.3299492,6.20625 67,5.25625 Z" id=""></path>
        </g>
      </g>
    </g>
  </g>
</svg>