<?xml version="1.0" encoding="UTF-8"?>
<svg width="24px" height="23px" viewBox="0 0 24 23" version="1.1" xmlns="http://www.w3.org/2000/svg" xmlns:xlink="http://www.w3.org/1999/xlink">
  <title>linkedin - FontAwesome</title>
  <desc>Created with Sketch.</desc>
  <defs></defs>
  <g id="Symbols" stroke="none" stroke-width="1" fill="none" fill-rule="evenodd" fill-opacity="0.5">
    <g id="Footer" transform="translate(-1175.000000, -291.000000)" fill="#FFFFFF">
      <g id="08-Footer">
        <g id="Group-3" transform="translate(1024.000000, 291.000000)">
          <path d="M156.453125,7.453125 L151.296875,7.453125 L151.296875,22.9375 L156.453125,22.9375 L156.453125,7.453125 Z M156.78125,2.671875 C156.765625,1.15625 155.671875,0 153.90625,0 C152.15625,0 151,1.15625 151,2.671875 C151,4.15625 152.109375,5.34375 153.84375,5.34375 L153.875,5.34375 C155.671875,5.34375 156.796875,4.15625 156.78125,2.671875 Z M164.4375,9.65398702 L164.4375,7.453125 L159.296875,7.453125 C159.296875,7.453125 159.359375,8.90625 159.296875,22.9375 L164.4375,22.9375 L164.4375,14.296875 C164.4375,13.828125 164.484375,13.375 164.609375,13.03125 C164.984375,12.109375 165.828125,11.15625 167.25,11.15625 C169.109375,11.15625 169.859375,12.578125 169.859375,14.65625 L169.859375,22.9375 L175,22.9375 L175,14.0625 C175,9.3125 172.46875,7.09375 169.078125,7.09375 C166.339459,7.09375 165.115812,8.59361847 164.4375,9.65398702 L164.4375,9.65398702 Z" id="linkedin---FontAwesome"></path>
        </g>
      </g>
    </g>
  </g>
</svg>