<?xml version="1.0" encoding="UTF-8"?>
<svg width="24px" height="24px" viewBox="0 0 24 24" version="1.1" xmlns="http://www.w3.org/2000/svg" xmlns:xlink="http://www.w3.org/1999/xlink">
  <title></title>
  <desc>Created with Sketch.</desc>
  <defs></defs>
  <g id="Symbols" stroke="none" stroke-width="1" fill="none" fill-rule="evenodd" fill-opacity="0.5">
    <g id="Footer" transform="translate(-1121.000000, -291.000000)" fill="#FFFFFF">
      <g id="08-Footer">
        <g id="Group-3" transform="translate(1024.000000, 291.000000)">
          <path d="M112.999675,12 C112.999675,9.79705428 111.202946,8.00032549 109,8.00032549 C106.797054,8.00032549 105.000325,9.79705428 105.000325,12 C105.000325,14.2029457 106.797054,15.9996745 109,15.9996745 C111.202946,15.9996745 112.999675,14.2029457 112.999675,12 Z M115.155749,12 C115.155749,15.4059728 112.405973,18.155749 109,18.155749 C105.594027,18.155749 102.844251,15.4059728 102.844251,12 C102.844251,8.59402718 105.594027,5.84425096 109,5.84425096 C112.405973,5.84425096 115.155749,8.59402718 115.155749,12 Z M116.843112,5.5942713 C116.843112,6.39108145 116.202539,7.03165433 115.405729,7.03165433 C114.608919,7.03165433 113.968346,6.39108145 113.968346,5.5942713 C113.968346,4.79746114 114.608919,4.15688827 115.405729,4.15688827 C116.202539,4.15688827 116.843112,4.79746114 116.843112,5.5942713 Z M109,2.15705102 C107.250142,2.15705102 103.500448,2.01643746 101.922451,2.64138661 C101.37562,2.86011881 100.969404,3.12572219 100.547563,3.54756286 C100.125722,3.96940353 99.8601188,4.37562047 99.6413866,4.92245097 C99.0164375,6.50044755 99.157051,10.2501424 99.157051,12 C99.157051,13.7498576 99.0164375,17.4995524 99.6413866,19.077549 C99.8601188,19.6243795 100.125722,20.0305965 100.547563,20.4524371 C100.969404,20.8742778 101.37562,21.1398812 101.922451,21.3586134 C103.500448,21.9835625 107.250142,21.842949 109,21.842949 C110.749858,21.842949 114.499552,21.9835625 116.077549,21.3586134 C116.62438,21.1398812 117.030596,20.8742778 117.452437,20.4524371 C117.874278,20.0305965 118.139881,19.6243795 118.358613,19.077549 C118.983563,17.4995524 118.842949,13.7498576 118.842949,12 C118.842949,10.2501424 118.983563,6.50044755 118.358613,4.92245097 C118.139881,4.37562047 117.874278,3.96940353 117.452437,3.54756286 C117.030596,3.12572219 116.62438,2.86011881 116.077549,2.64138661 C114.499552,2.01643746 110.749858,2.15705102 109,2.15705102 Z M120.999024,12 C120.999024,13.6561152 121.014647,15.2966067 120.920905,16.9527219 C120.827163,18.8744406 120.389698,20.577427 118.983563,21.9835625 C117.577427,23.3896981 115.874441,23.8271625 113.952722,23.9209049 C112.296607,24.0146472 110.656115,23.9990235 109,23.9990235 C107.343885,23.9990235 105.703393,24.0146472 104.047278,23.9209049 C102.125559,23.8271625 100.422573,23.3896981 99.0164375,21.9835625 C97.6103019,20.577427 97.1728375,18.8744406 97.0790951,16.9527219 C96.9853528,15.2966067 97.0009765,13.6561152 97.0009765,12 C97.0009765,10.3438848 96.9853528,8.70339328 97.0790951,7.04727805 C97.1728375,5.12555944 97.6103019,3.42257303 99.0164375,2.01643746 C100.422573,0.610301896 102.125559,0.172837497 104.047278,0.0790951257 C105.703393,-0.0146472455 107.343885,0.000976483034 109,0.000976483034 C110.656115,0.000976483034 112.296607,-0.0146472455 113.952722,0.0790951257 C115.874441,0.172837497 117.577427,0.610301896 118.983563,2.01643746 C120.389698,3.42257303 120.827163,5.12555944 120.920905,7.04727805 C121.014647,8.70339328 120.999024,10.3438848 120.999024,12 Z" id=""></path>
        </g>
      </g>
    </g>
  </g>
</svg>