<svg xmlns="http://www.w3.org/2000/svg" viewBox="0 0 880.7 237.3">
	<path fill="#005580" d="M186 158.5L173 52.1l-44.4 91.2h-16L67.9 52.1 55.1 158.5h-18l17-139.6h16.6l49.8 103.5 49.6-103.5h16.6L204 158.5h-18zM317.5 118.7h-77c2.6 16.8 14.8 25.1 31 25.1 11.5 0 22.3-4.9 27.6-14.4l15.4 6.1c-8.3 16.4-25.3 24.9-43.6 24.9-26.9 0-48.6-19.7-48.6-49.6 0-30 21.7-49 48.6-49 26.9 0 47 19 47 49 0 2.7-.2 5.3-.4 7.9zm-17.2-15.1c-2.2-16.2-13.8-25.1-29.4-25.1-16 0-27.4 8.1-30.2 25.1h59.6zM400.5 65.5l-2.8 16.6c-5.1-2.4-10.1-3.2-13.8-3.2-18.8 0-26.3 20.1-26.3 45v34.6h-17.8V63.8h17.8v21.5c4.9-16.6 14-23.5 26.5-23.5 6.7 0 13.6 1.8 16.4 3.7zM414.9 29c0-6.7 5.7-11.8 12.4-11.8 6.9 0 12.6 5.1 12.6 11.8s-5.7 11.8-12.6 11.8c-6.7-.1-12.4-5.1-12.4-11.8zm3.7 34.8h17.6v94.6h-17.6V63.8zM557.7 12.2v146.3h-17.6v-15c-6.3 10.9-20.1 17-33.6 17-25.9 0-47.4-19.7-47.4-49.4 0-30 21.3-49.2 47.2-49.2 14.2 0 27.6 5.7 33.8 16.8V12.2h17.6zm-17.6 98.6c0-20.5-16.6-32.4-32.2-32.4-17.2 0-31 13.4-31 32.4 0 18.8 13.8 33 31 33 17 .1 32.2-12.7 32.2-33zM581.2 29c0-6.7 5.7-11.8 12.4-11.8 6.9 0 12.6 5.1 12.6 11.8s-5.7 11.8-12.6 11.8c-6.7-.1-12.4-5.1-12.4-11.8zm3.7 34.8h17.6v94.6h-17.6V63.8zM724.1 63.8v94.6h-17.6v-15c-6.3 10.9-20.1 17-33.6 17-25.9 0-47.4-19.7-47.4-49.4 0-30 21.3-49.2 47.2-49.2 14.2 0 27.6 5.7 33.8 16.8V63.8h17.6zm-17.7 47c0-20.5-16.6-32.4-32.2-32.4-17.2 0-31 13.4-31 32.4 0 18.8 13.8 33 31 33 17 .1 32.2-12.7 32.2-33zM836.5 103.8v54.7h-17.6v-53.7c0-15.8-9.7-25.5-22.9-25.5s-29 7.5-29 28v51.3h-17.6V63.8H767v14.4c5.7-11.5 21.1-16.4 31.4-16.4 23.5 0 38.3 15.4 38.1 42zM839.6 40.1h11.5v2h-4.6v13.5h-2.3V42.1h-4.6v-2zM869 55.7l-1.4-11.4-4.7 9.7h-1.8l-4.7-9.7-1.4 11.4h-2.4l2-15.5h2l5.5 11.4 5.4-11.4h2l1.9 15.5H869z" class="st3"/>
	<path fill="#ffbe19" d="M7 159.1s36.1 46.8 113.6 46.8 113.6-46.8 113.6-46.8-25.5 60.3-113.6 60.3S7 159.1 7 159.1z"/>
</svg>