<svg width="24" height="24" viewBox="0 0 24 24" fill="none" xmlns="http://www.w3.org/2000/svg">
<path fill-rule="evenodd" clip-rule="evenodd" d="M1.08789 12C2.98391 7.86894 7.15682 5 11.9998 5C16.8428 5 21.0157 7.86895 22.9117 12C21.0157 16.1311 16.8428 19 11.9998 19C7.15682 19 2.98391 16.1311 1.08789 12ZM7.49981 12C7.49981 9.51472 9.51452 7.5 11.9998 7.5C14.4851 7.5 16.4998 9.51472 16.4998 12C16.4998 14.4853 14.4851 16.5 11.9998 16.5C9.51452 16.5 7.49981 14.4853 7.49981 12ZM11.9998 9C10.343 9 8.99981 10.3431 8.99981 12C8.99981 13.6569 10.343 15 11.9998 15C13.6567 15 14.9998 13.6569 14.9998 12C14.9998 10.3431 13.6567 9 11.9998 9Z" fill="#C1C1C1"/>
</svg>
