<svg width="24" height="24" viewBox="0 0 24 24" fill="none" xmlns="http://www.w3.org/2000/svg">
<path fill-rule="evenodd" clip-rule="evenodd" d="M20.7069 3.29289C20.3164 2.90237 19.6832 2.90237 19.2927 3.29289L3.2927 19.2929L3.20951 19.3871C2.90449 19.7794 2.93222 20.3466 3.2927 20.7071C3.68322 21.0976 4.31639 21.0976 4.70691 20.7071L20.7069 4.70711L20.7901 4.6129C21.0951 4.22061 21.0674 3.65338 20.7069 3.29289ZM11.9998 5C12.8561 5 13.6915 5.08969 14.497 5.26019L12.2503 7.50686C12.1674 7.50231 12.0839 7.5 11.9998 7.5C9.51452 7.5 7.49981 9.51472 7.49981 12C7.49981 12.0841 7.50211 12.1676 7.50666 12.2505L3.90161 15.8556C2.72401 14.7781 1.76203 13.4688 1.08789 12C2.98391 7.86894 7.15682 5 11.9998 5ZM11.9998 16.5C11.9157 16.5 11.8322 16.4977 11.7493 16.4931L9.50264 18.7398C10.3082 18.9103 11.1435 19 11.9998 19C16.8428 19 21.0157 16.1311 22.9117 12C22.2376 10.5312 21.2756 9.22192 20.098 8.14444L16.493 11.7495C16.4975 11.8324 16.4998 11.9159 16.4998 12C16.4998 14.4853 14.4851 16.5 11.9998 16.5Z" fill="#C1C1C1"/>
</svg>
