<svg version="1.1" id="ic-erreur" xmlns="http://www.w3.org/2000/svg" x="0" y="0" width="26" height="26" xml:space="preserve"><path id="rond" fill="#fff" d="M13 1.7c6.2 0 11.3 5 11.3 11.3s-5 11.3-11.3 11.3S1.7 19.2 1.7 13 6.8 1.7 13 1.7"/><path id="cercle" fill="#C00" d="M13 1.7c6.2 0 11.3 5 11.3 11.3s-5 11.3-11.3 11.3S1.7 19.2 1.7 13 6.8 1.7 13 1.7M13 0C5.8 0 0 5.9 0 13s5.8 13 13 13 13-5.8 13-13S20.1 0 13 0z"/><path id="x" fill="#C00" d="M14 13l3.9-3.9c.3-.3.3-.8 0-1-.3-.3-.8-.3-1 0L13 12 9.1 8.1c-.3-.3-.8-.3-1 0s-.3.8 0 1L12 13l-3.9 3.9c-.3.3-.3.8 0 1 .1.2.3.3.5.3s.3-.1.5-.3L13 14l3.9 3.9c.2.2.3.3.5.3s.3-.1.5-.3c.3-.3.3-.8 0-1L14 13z"/></svg>