<?xml version="1.0" encoding="utf-8"?>
<!-- Generator: Adobe Illustrator 16.0.3, SVG Export Plug-In . SVG Version: 6.00 Build 0)  -->
<!DOCTYPE svg PUBLIC "-//W3C//DTD SVG 1.1//EN" "http://www.w3.org/Graphics/SVG/1.1/DTD/svg11.dtd">
<svg version="1.1" id="ic-telephonie" xmlns="http://www.w3.org/2000/svg" xmlns:xlink="http://www.w3.org/1999/xlink" x="0px"
	 y="0px" width="16px" height="24px" viewBox="0 0 16 24" enable-background="new 0 0 16 24" xml:space="preserve">
<path fill="#231F20" d="M14,0H2C0.9,0,0,0.9,0,2v20c0,1.1,0.9,2,2,2h12c1.1,0,2-0.9,2-2V2C16,0.9,15.1,0,14,0z M6.4,2h3.2
	c0.3,0,0.5,0.2,0.5,0.5C10.1,2.8,9.9,3,9.6,3H6.4C6.1,3,5.9,2.8,5.9,2.5C5.9,2.2,6.1,2,6.4,2z M8.6,22.1H7.4c-0.3,0-0.6-0.2-0.6-0.6
	c0-0.3,0.3-0.6,0.6-0.6h1.1c0.3,0,0.6,0.3,0.6,0.6C9.1,21.8,8.9,22.1,8.6,22.1z M14,19.5c0,0.3-0.2,0.5-0.5,0.5h-11
	C2.2,20,2,19.8,2,19.5v-15C2,4.2,2.2,4,2.5,4h11C13.8,4,14,4.2,14,4.5V19.5z"/>
</svg>
