<svg xmlns="http://www.w3.org/2000/svg" width="77" height="55" viewBox="0 0 77 55">
    <g fill="none" fill-rule="evenodd">
        <path fill="#005EB8" d="M0 54.034h77V0H0z"/>
        <path fill="#FFF" d="M20.84 32.245l-1.564 5.642h-5.108l6.671-21.968h6.51l6.836 21.968h-5.371l-1.695-5.642h-6.28zm5.568-3.71l-1.368-4.661c-.391-1.308-.783-2.937-1.106-4.242h-.068c-.323 1.305-.649 2.965-1.005 4.242l-1.305 4.662h4.852zM29.42 15.92l1.279 4.165h5.209v17.803h4.948V20.084h5.703v17.709c1.106.162 2.931.322 5.368.322 4.362 0 7.031-.717 8.626-1.985 1.368-1.109 2.279-2.68 2.279-4.693 0-2.811-1.723-4.708-4.23-5.357v-.066c2.473-.947 3.48-2.636 3.48-4.56 0-2.018-1.073-3.52-2.603-4.337-1.629-.948-3.458-1.198-6.483-1.198H29.42zm22.054 4.162h2.113c2.25 0 3.441.797 3.441 2.461 0 1.635-1.288 2.038-3.926 2.038h-1.628v-4.499zm1.922 14.352c-.847 0-1.438 0-1.922-.066v-6.19h1.695c2.47 0 4.452.878 4.452 3.063 0 2.31-1.983 3.193-4.225 3.193z"/>
    </g>
</svg>
