<?xml version="1.0" encoding="utf-8"?>
<!-- Generator: Adobe Illustrator 20.1.0, SVG Export Plug-In . SVG Version: 6.00 Build 0)  -->
<svg version="1.1" id="Layer_1" xmlns="http://www.w3.org/2000/svg" xmlns:xlink="http://www.w3.org/1999/xlink" x="0px" y="0px"
	 width="494.1px" height="286.4px" viewBox="0 0 494.1 286.4" style="enable-background:new 0 0 494.1 286.4;" xml:space="preserve"
	>
<style type="text/css">
	.st0{fill:#FFFFFF;}
</style>
<g>
	<path class="st0" d="M232.4,283.5c-4.7-2-9.1-4.9-13-8.8L11.7,67C3.9,59.2,0,49.8,0,38.9s3.9-20,11.7-27.2C19,3.9,28.1,0,38.9,0
		S59.2,3.9,67,11.7l180,180l180-180C434.9,3.9,444.3,0,455.1,0c10.9,0,20,3.9,27.2,11.7c7.8,7.3,11.7,16.3,11.7,27.2
		s-3.9,20.2-11.7,28.1L274.7,274.7c-3.9,3.9-8.2,6.8-13,8.8c-4.7,2-9.6,2.9-14.7,2.9S237.1,285.4,232.4,283.5z"/>
</g>
</svg>
