<svg xmlns="http://www.w3.org/2000/svg" xmlns:xlink="http://www.w3.org/1999/xlink" viewBox="0 0 75.535 83.89"><defs><style>.cls-1{fill:#414042}.cls-2{fill:url(#linear-gradient)}.cls-3{fill:url(#linear-gradient-2)}</style><linearGradient id="linear-gradient" x1=".001" y1=".805" x2=".939" y2=".413" gradientUnits="objectBoundingBox"><stop offset="0" stop-color="#ffc600"/><stop offset=".199" stop-color="#ff9b00"/><stop offset=".37" stop-color="#e9371d"/><stop offset=".586" stop-color="#a52bb4"/><stop offset=".792" stop-color="#4a2bb4"/><stop offset=".994" stop-color="#00d1af"/></linearGradient><linearGradient id="linear-gradient-2" x1=".964" y1=".272" x2=".102" y2=".553" xlink:href="#linear-gradient"/></defs><g id="icon" transform="translate(37.768 41.945)"><g id="Group_8" data-name="Group 8" transform="translate(-37.768 -41.945)"><path id="Path_56" data-name="Path 56" class="cls-1" d="M65.424 102.085h-4.053V85.631c0-5.2-2.482-8.408-6.838-8.406-4.476 0-9.375 2.543-9.373 9.439v15.425h-4.054L41.1 73.842h4.053V78.5c1.753-3.69 6.773-5.264 9.374-5.265 4.779 0 8.167 2.236 9.8 6.167 2.539-5.324 7.62-6.172 10.463-6.173 6.9 0 10.95 4.715 10.892 12.4v16.454h-4.047V85.63c0-5.2-2.482-8.408-6.838-8.406-4.476 0-9.375 2.543-9.374 9.439z" transform="translate(-25.657 -45.714)"/><g id="Group_6" data-name="Group 6"><path id="Path_57" data-name="Path 57" class="cls-2" d="M37.767 3.582a43.479 43.479 0 0 1 37.767 21.254A41.133 41.133 0 0 0 0 24.835 43.481 43.481 0 0 1 37.767 3.582z" transform="translate(.001 .003)"/><path id="Path_58" data-name="Path 58" class="cls-3" d="M37.767 178.416A43.479 43.479 0 0 1 0 157.161a41.133 41.133 0 0 0 75.535 0 43.479 43.479 0 0 1-37.768 21.255z" transform="translate(0 -98.109)"/></g><g id="Group_7" data-name="Group 7" transform="translate(60.033 28.118)"><path id="Path_59" data-name="Path 59" class="cls-1" d="M160.638 74.833v.15h-.353V76h-.159v-1.019h-.353v-.15z" transform="translate(-159.772 -74.831)"/><path id="Path_60" data-name="Path 60" class="cls-1" d="M163.507 74.835h.144l.141 1.165h-.156l-.107-.876-.364.747h-.139l-.367-.747-.106.876h-.153l.142-1.165h.144l.411.856z" transform="translate(-161.413 -74.834)"/></g></g></g></svg>